<svg version="1.2" baseProfile="tiny-ps" xmlns="http://www.w3.org/2000/svg" viewBox="0 0 2900 2000" width="2900" height="2000">
	<title>5834-ai</title>
	<style>
		tspan { white-space:pre }
		.shp0 { fill: #ffffff } 
		.shp1 { fill: #f4a640 } 
		.shp2 { fill: #adcfd8 } 
		.shp3 { fill: #55769f } 
		.shp4 { fill: #daeef7 } 
		.shp5 { fill: #feb546 } 
		.shp6 { fill: #ff5b7e } 
		.shp7 { fill: #e03268 } 
		.shp8 { fill: #02ccc0 } 
		.shp9 { fill: #06bfad } 
		.shp10 { fill: #07085b } 
		.shp11 { fill: #ffc0bb } 
		.shp12 { fill: #f99893 } 
		.shp13 { fill: #333333 } 
		.shp14 { fill: #fc8d84 } 
		.shp15 { fill: #c4dfe8 } 
	</style>
	<g id="Layer 1">
		<path id="&lt;Path&gt;" class="shp0" d="M2900 2000L0 2000L0 0L2900 0L2900 2000Z" />
		<g id="&lt;Group&gt;">
			<g id="&lt;Group&gt;">
				<g id="&lt;Group&gt;">
					<path id="&lt;Path&gt;" class="shp1" d="M1371 1534.84L1067.56 1656.71L691.94 721.41L948.43 618.4C974.36 607.99 1003.82 620.57 1014.24 646.5L1371 1534.84Z" />
				</g>
				<g id="&lt;Group&gt;">
					<g id="&lt;Group&gt;">
						<path id="&lt;Path&gt;" class="shp2" d="M1406.7 1500.04L825.7 1603.04L680.88 786.14L1261.89 683.14L1406.7 1500.04Z" />
					</g>
					<g id="&lt;Group&gt;">
						<path id="&lt;Path&gt;" class="shp3" d="M1116.17 798.6L856.71 844.6L855.68 838.77L1115.13 792.78L1116.17 798.6Z" />
					</g>
					<g id="&lt;Group&gt;">
						<path id="&lt;Path&gt;" class="shp3" d="M1168.05 774.17L799.59 839.49L798.55 833.67L1167.02 768.35L1168.05 774.17Z" />
					</g>
					<g id="&lt;Group&gt;">
						<path id="&lt;Path&gt;" class="shp3" d="M1220.8 843.14L773.76 922.39L772.73 916.56L1219.77 837.31L1220.8 843.14Z" />
					</g>
					<g id="&lt;Group&gt;">
						<path id="&lt;Path&gt;" class="shp3" d="M1225.76 871.15L778.73 950.4L777.7 944.58L1224.73 865.33L1225.76 871.15Z" />
					</g>
					<g id="&lt;Group&gt;">
						<path id="&lt;Path&gt;" class="shp3" d="M1235.7 927.19L788.66 1006.43L787.63 1000.61L1234.66 921.36L1235.7 927.19Z" />
					</g>
					<g id="&lt;Group&gt;">
						<path id="&lt;Path&gt;" class="shp3" d="M1240.66 955.2L793.63 1034.45L792.6 1028.63L1239.63 949.38L1240.66 955.2Z" />
					</g>
					<g id="&lt;Group&gt;">
						<path id="&lt;Path&gt;" class="shp3" d="M1245.63 983.22L798.6 1062.47L797.56 1056.64L1244.6 977.39L1245.63 983.22Z" />
					</g>
					<g id="&lt;Group&gt;">
						<path id="&lt;Path&gt;" class="shp3" d="M1267.48 1106.44L820.44 1185.69L819.41 1179.86L1266.44 1100.61L1267.48 1106.44Z" />
					</g>
					<g id="&lt;Group&gt;">
						<path id="&lt;Path&gt;" class="shp3" d="M1272.63 1135.49L825.59 1214.74L824.56 1208.91L1271.59 1129.66L1272.63 1135.49Z" />
					</g>
					<g id="&lt;Group&gt;">
						<path id="&lt;Path&gt;" class="shp3" d="M1277.78 1164.54L830.74 1243.79L829.71 1237.96L1276.74 1158.72L1277.78 1164.54Z" />
					</g>
					<g id="&lt;Group&gt;">
						<path id="&lt;Path&gt;" class="shp3" d="M1282.92 1193.59L835.89 1272.84L834.86 1267.02L1281.89 1187.77L1282.92 1193.59Z" />
					</g>
					<g id="&lt;Group&gt;">
						<path id="&lt;Path&gt;" class="shp3" d="M1288.08 1222.64L841.04 1301.89L840.01 1296.07L1287.04 1216.82L1288.08 1222.64Z" />
					</g>
					<g id="&lt;Group&gt;">
						<path id="&lt;Path&gt;" class="shp3" d="M1293.23 1251.69L846.19 1330.94L845.16 1325.12L1292.19 1245.87L1293.23 1251.69Z" />
					</g>
					<g id="&lt;Group&gt;">
						<path id="&lt;Path&gt;" class="shp3" d="M1298.38 1280.74L851.34 1359.99L850.31 1354.17L1297.34 1274.92L1298.38 1280.74Z" />
					</g>
				</g>
				<g id="&lt;Group&gt;">
					<g id="&lt;Group&gt;">
						<path id="&lt;Path&gt;" class="shp4" d="M1389.3 1465.06L818.66 1615.23L607.52 812.92L1178.15 662.74L1389.3 1465.06Z" />
					</g>
					<g id="&lt;Group&gt;">
						<path id="&lt;Path&gt;" class="shp3" d="M1042.36 789.74L787.54 856.8L786.04 851.08L1040.86 784.02L1042.36 789.74Z" />
					</g>
					<g id="&lt;Group&gt;">
						<path id="&lt;Path&gt;" class="shp3" d="M1092.08 761.14L730.19 856.38L728.68 850.66L1090.57 755.42L1092.08 761.14Z" />
					</g>
					<g id="&lt;Group&gt;">
						<path id="&lt;Path&gt;" class="shp3" d="M1150.29 825.57L711.23 941.11L709.73 935.39L1148.78 819.84L1150.29 825.57Z" />
					</g>
					<g id="&lt;Group&gt;">
						<path id="&lt;Path&gt;" class="shp3" d="M1157.53 853.08L718.48 968.63L716.97 962.91L1156.02 847.36L1157.53 853.08Z" />
					</g>
					<g id="&lt;Group&gt;">
						<path id="&lt;Path&gt;" class="shp3" d="M1172.01 908.11L732.96 1023.66L731.45 1017.94L1170.51 902.39L1172.01 908.11Z" />
					</g>
					<g id="&lt;Group&gt;">
						<path id="&lt;Path&gt;" class="shp3" d="M1179.25 935.63L740.2 1051.17L738.69 1045.45L1177.75 929.91L1179.25 935.63Z" />
					</g>
					<g id="&lt;Group&gt;">
						<path id="&lt;Path&gt;" class="shp3" d="M1186.5 963.14L747.44 1078.69L745.94 1072.97L1184.99 957.42L1186.5 963.14Z" />
					</g>
					<g id="&lt;Group&gt;">
						<path id="&lt;Path&gt;" class="shp3" d="M1218.35 1084.16L779.29 1199.71L777.79 1193.99L1216.84 1078.44L1218.35 1084.16Z" />
					</g>
					<g id="&lt;Group&gt;">
						<path id="&lt;Path&gt;" class="shp3" d="M1225.85 1112.7L786.8 1228.25L785.29 1222.52L1224.35 1106.98L1225.85 1112.7Z" />
					</g>
					<g id="&lt;Group&gt;">
						<path id="&lt;Path&gt;" class="shp3" d="M1233.36 1141.23L794.31 1256.78L792.8 1251.06L1231.86 1135.51L1233.36 1141.23Z" />
					</g>
					<g id="&lt;Group&gt;">
						<path id="&lt;Path&gt;" class="shp3" d="M1240.87 1169.76L801.82 1285.31L800.31 1279.59L1239.37 1164.04L1240.87 1169.76Z" />
					</g>
					<g id="&lt;Group&gt;">
						<path id="&lt;Path&gt;" class="shp3" d="M1248.38 1198.29L809.33 1313.84L807.82 1308.12L1246.88 1192.57L1248.38 1198.29Z" />
					</g>
					<g id="&lt;Group&gt;">
						<path id="&lt;Path&gt;" class="shp3" d="M1255.89 1226.83L816.84 1342.37L815.33 1336.65L1254.38 1221.11L1255.89 1226.83Z" />
					</g>
					<g id="&lt;Group&gt;">
						<path id="&lt;Path&gt;" class="shp3" d="M1263.4 1255.36L824.34 1370.91L822.84 1365.18L1261.89 1249.64L1263.4 1255.36Z" />
					</g>
				</g>
				<g id="&lt;Group&gt;">
					<path id="&lt;Path&gt;" class="shp5" d="M1255.86 1581.08L644.97 1826.42L288.66 939.23L802.01 622.56C830.86 604.76 868.78 617.25 881.41 648.7L1255.86 1581.08Z" />
				</g>
			</g>
			<g id="&lt;Group&gt;">
				<g id="&lt;Group&gt;">
					<path id="&lt;Path&gt;" class="shp6" d="M447.83 1682.85L360.68 1681.27C340.51 1644.71 323.02 1610.54 308.22 1578.76C406.65 1556.07 489.72 1565.38 558.93 1591.99L597.06 1684.63L605.23 1613.29C719.57 1675 800.3 1771.16 847.41 1901.79C645.33 1880.26 522.87 1859.54 480.03 1839.61C455.22 1828.07 423.95 1786.55 394.92 1739.93C410.4 1725.18 428.04 1706.16 447.83 1682.85Z" />
				</g>
				<g id="&lt;Group&gt;">
					<path id="&lt;Path&gt;" class="shp7" d="M308.22 1578.76C567.67 1687.94 747.4 1795.61 847.41 1901.79C645.33 1880.26 522.87 1859.54 480.03 1839.61C455.22 1828.07 423.95 1786.55 394.92 1739.93C410.4 1725.18 428.04 1706.16 447.83 1682.85L360.68 1681.27C340.51 1644.71 323.02 1610.54 308.22 1578.76Z" />
				</g>
				<g id="&lt;Group&gt;">
					<path id="&lt;Path&gt;" class="shp6" d="M320.64 1840.51C373.04 1808.6 425.91 1791.52 477.07 1784.71C487.06 1797.14 498.2 1810.67 510.47 1825.28L512.41 1781.58C643.28 1775.62 762.93 1816.48 871.36 1904.16C757.67 1975.82 660.69 1995.57 581.25 1989.17C578.11 1978.98 574.32 1966.27 569.88 1951.07L555.84 1986.18C517.76 1980.23 484.16 1968.35 455.14 1953.83C460.09 1941.69 465.18 1928.67 470.4 1914.79L428.09 1938.83C380.83 1909.93 345.01 1877.16 320.64 1840.51Z" />
				</g>
				<g id="&lt;Group&gt;">
					<path id="&lt;Path&gt;" class="shp7" d="M581.25 1989.17C578.11 1978.98 574.32 1966.27 569.88 1951.07L555.84 1986.18C517.76 1980.23 484.16 1968.35 455.14 1953.83C460.09 1941.69 465.18 1928.67 470.4 1914.79L428.09 1938.83C380.83 1909.93 345.01 1877.16 320.64 1840.51C473.11 1822.89 656.69 1844.11 871.36 1904.16C757.67 1975.82 660.69 1995.57 581.25 1989.17Z" />
				</g>
			</g>
			<g id="&lt;Group&gt;">
				<path id="&lt;Path&gt;" class="shp8" d="M1466.01 661.36L1536.26 609.77C1531.63 568.27 1526.18 530.28 1519.92 495.78C1426.45 534.06 1364 589.62 1322.84 651.29L1345.17 748.96L1297.33 695.42C1239.57 811.81 1229.15 936.93 1266.08 1070.79C1418.67 936.57 1506.71 848.96 1530.2 807.96C1543.8 784.22 1545.36 732.27 1542.16 677.43C1521 674.33 1495.62 668.97 1466.01 661.36Z" />
			</g>
			<g id="&lt;Group&gt;">
				<path id="&lt;Path&gt;" class="shp9" d="M1519.92 495.78C1371.08 734.69 1286.47 926.36 1266.08 1070.79C1418.67 936.57 1506.71 848.96 1530.2 807.96C1543.8 784.22 1545.36 732.27 1542.16 677.43C1521 674.33 1495.62 668.97 1466.01 661.36L1536.26 609.77C1531.63 568.27 1526.18 530.28 1519.92 495.78Z" />
			</g>
			<g id="&lt;Group&gt;">
				<path id="&lt;Path&gt;" class="shp8" d="M1660.87 716.69C1599.66 720.88 1546.63 737.45 1500.92 761.42C1499.94 777.34 1498.65 794.81 1497.06 813.83L1470.25 779.26C1359.95 849.93 1285.83 952.36 1247.89 1086.55C1382.09 1079.44 1472.69 1039.6 1533.87 988.51C1530.54 978.38 1526.31 965.82 1521.16 950.84L1552.89 971.41C1580.55 944.57 1601.13 915.47 1616.45 886.86C1605.4 879.81 1593.73 872.12 1581.46 863.79L1629.88 859C1651.79 808.12 1662.12 760.68 1660.87 716.69Z" />
			</g>
			<g id="&lt;Group&gt;">
				<path id="&lt;Path&gt;" class="shp9" d="M1533.87 988.51C1530.54 978.38 1526.31 965.82 1521.16 950.84L1552.89 971.41C1580.55 944.57 1601.13 915.47 1616.45 886.86C1605.4 879.81 1593.73 872.12 1581.46 863.79L1629.88 859C1651.79 808.12 1662.12 760.68 1660.87 716.69C1526.19 790.32 1388.53 913.6 1247.89 1086.55C1382.09 1079.44 1472.69 1039.6 1533.87 988.51Z" />
			</g>
			<g id="&lt;Group&gt;">
				<g id="&lt;Group&gt;">
					<path id="&lt;Path&gt;" class="shp7" d="M2222.46 971.98L2264.23 971.98C2257.4 967.31 2248.85 964.51 2239.54 964.51L1192.99 964.51C1138.24 964.51 1093.85 1003.86 1093.85 1052.4L1093.85 1108.22C1093.85 1156.75 1138.24 1196.1 1192.99 1196.1L2227.84 1195.79L2222.46 971.98Z" />
				</g>
				<g id="&lt;Group&gt;">
					<path id="&lt;Path&gt;" class="shp5" d="M1181.64 1108.22L1181.64 1052.4C1181.64 1003.86 1226.03 964.51 1280.78 964.51L1258.31 964.51C1203.55 964.51 1159.17 1003.86 1159.17 1052.4L1159.17 1108.22C1159.17 1156.75 1203.55 1196.1 1258.31 1196.1L1280.48 1196.1C1225.87 1195.95 1181.64 1156.67 1181.64 1108.22Z" />
				</g>
				<g id="&lt;Group&gt;">
					<path id="&lt;Path&gt;" class="shp5" d="M1426.74 1108.22L1426.74 1052.4C1426.74 1003.86 1471.13 964.51 1525.89 964.51L1503.41 964.51C1448.66 964.51 1404.27 1003.86 1404.27 1052.4L1404.27 1108.22C1404.27 1156.75 1448.66 1196.1 1503.41 1196.1L1525.59 1196.1C1470.97 1195.95 1426.74 1156.67 1426.74 1108.22Z" />
				</g>
				<g id="&lt;Group&gt;">
					<path id="&lt;Path&gt;" class="shp6" d="M1628.31 964.72C1575.94 964.72 1533.5 1002.35 1533.5 1048.77L1533.5 1111.85C1533.5 1158.27 1575.94 1195.9 1628.31 1195.9L2279.81 1195.9L2279.81 1181.78L2277.12 1181.78L2111.49 1167.88L2078.02 1051.46C2121.09 1008.58 2144.03 986.58 2146.84 985.47C2149.65 984.37 2193.08 982.14 2277.12 978.78L2279.81 978.75L2279.81 964.72L1628.31 964.72Z" />
				</g>
				<g id="&lt;Group&gt;">
					<path id="&lt;Path&gt;" class="shp4" d="M2237.56 1079.89C2237.56 1034.52 2250.78 1000.83 2277.24 978.83L1641.65 978.83C1593.55 978.83 1554.56 1013.39 1554.56 1056.03L1554.56 1104.59C1554.56 1147.22 1593.55 1181.78 1641.65 1181.78L2277.24 1181.78C2250.78 1170.99 2237.56 1137.03 2237.56 1079.89Z" />
				</g>
				<g id="&lt;Group&gt;" style="mix-blend-mode: multiply">
					<path id="&lt;Path&gt;" class="shp4" d="M1554.56 1056.03L1554.56 1104.59C1554.56 1110.97 1555.46 1117.17 1557.1 1123.1C1578.54 1076.61 1619.62 1031.83 1697.83 1017.43C1819.57 995.02 2012.7 982.15 2277.24 978.83L1641.65 978.83C1593.55 978.83 1554.56 1013.39 1554.56 1056.03Z" />
				</g>
			</g>
			<g id="&lt;Group&gt;">
				<g id="&lt;Group&gt;">
					<path id="&lt;Path&gt;" class="shp10" d="M2205.22 1434.88L2252.51 1434.88C2244.77 1429.03 2235.09 1425.53 2224.57 1425.53L1040.07 1425.53C978.1 1425.53 927.86 1474.78 927.86 1535.53L927.86 1605.4C927.86 1666.16 978.1 1715.41 1040.07 1715.41L2211.32 1715.02L2205.22 1434.88Z" />
				</g>
				<g id="&lt;Group&gt;">
					<path id="&lt;Path&gt;" class="shp3" d="M1532.76 1425.79C1473.5 1425.79 1425.45 1472.89 1425.45 1530.99L1425.45 1609.95C1425.45 1668.05 1473.5 1715.15 1532.76 1715.15L2270.14 1715.15L2270.14 1697.49L2267.09 1697.49L2079.63 1680.08L2041.75 1534.36C2090.5 1480.68 2116.46 1453.15 2119.64 1451.76C2122.82 1450.38 2171.97 1447.58 2267.09 1443.38L2270.14 1443.35L2270.14 1425.79L1532.76 1425.79Z" />
				</g>
				<g id="&lt;Group&gt;">
					<path id="&lt;Path&gt;" class="shp4" d="M2222.31 1569.95C2222.31 1513.15 2237.28 1470.98 2267.22 1443.45L1547.86 1443.45C1493.43 1443.45 1449.3 1486.71 1449.3 1540.08L1449.3 1600.86C1449.3 1654.22 1493.43 1697.49 1547.86 1697.49L2267.22 1697.49C2237.28 1683.98 2222.31 1641.47 2222.31 1569.95Z" />
				</g>
				<g id="&lt;Group&gt;" style="mix-blend-mode: multiply">
					<path id="&lt;Path&gt;" class="shp4" d="M1449.3 1540.08L1449.3 1600.86C1449.3 1608.85 1450.31 1616.61 1452.17 1624.03C1476.43 1565.84 1522.94 1509.79 1611.45 1491.76C1749.23 1463.71 1967.82 1447.61 2267.22 1443.45L1547.86 1443.45C1493.43 1443.45 1449.3 1486.71 1449.3 1540.08Z" />
				</g>
			</g>
			<g id="&lt;Group&gt;">
				<g id="&lt;Group&gt;">
					<path id="&lt;Path&gt;" class="shp8" d="M888.82 1202.93L841.52 1202.93C849.26 1198.29 858.94 1195.51 869.47 1195.51L2054.43 1195.51C2116.43 1195.51 2166.68 1234.59 2166.68 1282.8L2166.68 1338.24C2166.68 1386.45 2116.43 1425.53 2054.43 1425.53L882.73 1425.22L888.82 1202.93Z" />
				</g>
				<g id="&lt;Group&gt;">
					<path id="&lt;Path&gt;" class="shp9" d="M1561.55 1195.72C1620.84 1195.72 1668.9 1233.09 1668.9 1279.19L1668.9 1341.85C1668.9 1387.95 1620.84 1425.32 1561.55 1425.32L823.88 1425.32L823.88 1411.31L826.93 1411.31L1014.46 1397.5L1052.37 1281.87C1003.59 1239.28 977.62 1217.43 974.44 1216.33C971.26 1215.23 922.09 1213.01 826.93 1209.68L823.88 1209.66L823.88 1195.72L1561.55 1195.72Z" />
				</g>
				<g id="&lt;Group&gt;">
					<path id="&lt;Path&gt;" class="shp4" d="M871.73 1310.11C871.73 1265.04 856.75 1231.58 826.8 1209.73L1546.44 1209.73C1600.9 1209.73 1645.04 1244.06 1645.04 1286.41L1645.04 1334.63C1645.04 1376.98 1600.9 1411.31 1546.44 1411.31L826.8 1411.31C856.75 1400.59 871.73 1366.86 871.73 1310.11Z" />
				</g>
				<g id="&lt;Group&gt;" style="mix-blend-mode: multiply">
					<path id="&lt;Path&gt;" class="shp4" d="M1645.04 1286.41L1645.04 1334.63C1645.04 1340.97 1644.04 1347.13 1642.17 1353.02C1617.9 1306.85 1571.38 1262.37 1482.83 1248.07C1344.99 1225.81 1126.32 1213.03 826.8 1209.73L1546.44 1209.73C1600.9 1209.73 1645.04 1244.06 1645.04 1286.41Z" />
				</g>
				<g id="&lt;Group&gt;" style="opacity: 0.502">
					<path id="&lt;Path&gt;" class="shp3" d="M1949.61 1338.24L1949.61 1282.8C1949.61 1234.59 1899.35 1195.51 1837.35 1195.51L1949.88 1195.51C2011.87 1195.51 2062.13 1234.59 2062.13 1282.8L2062.13 1338.24C2062.13 1386.45 2011.87 1425.53 1949.88 1425.53L1838.84 1425.5C1900.15 1424.88 1949.61 1386.06 1949.61 1338.24Z" />
				</g>
			</g>
			<g id="&lt;Group&gt;">
				<path id="&lt;Path&gt;" class="shp5" d="M799.36 1724.29L748.37 1724.29C756.71 1719.1 767.15 1716 778.5 1716L2055.91 1716C2122.75 1716 2176.93 1759.66 2176.93 1813.52L2176.93 1875.47C2176.93 1929.33 2122.75 1972.99 2055.91 1972.99L792.79 1972.65L799.36 1724.29Z" />
			</g>
			<g id="&lt;Group&gt;">
				<path id="&lt;Path&gt;" class="shp1" d="M1524.58 1716.23C1588.49 1716.23 1640.3 1757.99 1640.3 1809.49L1640.3 1879.5C1640.3 1931.01 1588.49 1972.76 1524.58 1972.76L729.36 1972.76L729.36 1957.1L732.64 1957.1L934.8 1941.67L975.66 1812.49C923.09 1764.9 895.09 1740.49 891.66 1739.26C888.23 1738.03 835.22 1735.55 732.64 1731.83L729.36 1731.8L729.36 1716.23L1524.58 1716.23Z" />
			</g>
			<g id="&lt;Group&gt;">
				<path id="&lt;Path&gt;" class="shp4" d="M780.93 1844.04C780.93 1793.68 764.79 1756.3 732.5 1731.89L1508.29 1731.89C1566.99 1731.89 1614.59 1770.24 1614.59 1817.55L1614.59 1871.44C1614.59 1918.75 1566.99 1957.1 1508.29 1957.1L732.5 1957.1C764.79 1945.13 780.93 1907.44 780.93 1844.04Z" />
			</g>
			<path id="&lt;Path&gt;" class="shp10" d="M825.03 1899.96L835.88 1924.17C836.78 1926.18 835.89 1928.52 833.88 1929.42L777.18 1954.84C773.07 1956.68 769.11 1952.02 771.58 1948.27L793.53 1914.08C805.09 1916.19 815.59 1911.49 825.03 1899.96Z" />
			<path id="&lt;Path&gt;" class="shp10" d="M897.07 1899.96L907.93 1924.17C908.83 1926.18 907.93 1928.52 905.93 1929.42L849.22 1954.84C845.12 1956.68 841.16 1952.02 843.63 1948.27L865.57 1914.08C877.14 1916.19 887.64 1911.49 897.07 1899.96Z" />
			<path id="&lt;Path&gt;" class="shp10" d="M2113.43 1173.73L2102.58 1197.95C2101.68 1199.95 2102.57 1202.3 2104.58 1203.2L2161.28 1228.62C2165.39 1230.46 2169.35 1225.8 2166.88 1222.04L2144.93 1187.85C2133.37 1189.97 2122.87 1185.26 2113.43 1173.73Z" />
			<path id="&lt;Path&gt;" class="shp10" d="M2039.95 1170.85L2029.09 1195.07C2028.19 1197.07 2029.09 1199.42 2031.09 1200.31L2087.79 1225.73C2091.9 1227.57 2095.86 1222.92 2093.39 1219.16L2071.45 1184.97C2059.88 1187.09 2049.38 1182.38 2039.95 1170.85Z" />
			<g id="&lt;Group&gt;" style="mix-blend-mode: multiply">
				<path id="&lt;Path&gt;" class="shp4" d="M1614.59 1817.55L1614.59 1871.44C1614.59 1878.52 1613.5 1885.4 1611.48 1891.98C1585.32 1840.39 1535.17 1790.7 1439.71 1774.72C1291.12 1749.85 1055.39 1735.57 732.5 1731.89L1508.29 1731.89C1566.99 1731.89 1614.59 1770.24 1614.59 1817.55Z" />
			</g>
			<path id="&lt;Path&gt;" class="shp10" d="M1019.56 1232.27L1025.59 1270.09L1038.33 1219.67C1026.43 1213.89 1020.21 1212.06 1019.69 1214.16C1019.16 1216.26 1019.12 1222.3 1019.56 1232.27Z" />
			<g id="&lt;Group&gt;">
				<path id="&lt;Path&gt;" class="shp11" d="M1120.91 1313.67L1126.42 1379.05L1068.73 1376.29L1075.38 1318.4L1120.91 1313.67Z" />
			</g>
			<g id="&lt;Group&gt;">
				<path id="&lt;Path&gt;" class="shp12" d="M1072.22 1345.93L1075.38 1318.4L1120.91 1313.67L1122.82 1336.31C1113.77 1345.33 1097.49 1354.68 1072.22 1345.93Z" />
			</g>
			<g id="&lt;Group&gt;">
				<g id="&lt;Group&gt;">
					<path id="&lt;Path&gt;" class="shp12" d="M1036.84 1269.62C1040.31 1276.79 1038.47 1284.86 1032.73 1287.63C1026.99 1290.41 1019.53 1286.84 1016.06 1279.67C1012.59 1272.49 1014.43 1264.43 1020.17 1261.65C1025.91 1258.88 1033.37 1262.44 1036.84 1269.62Z" />
				</g>
				<g id="&lt;Group&gt;">
					<path id="&lt;Path&gt;" class="shp11" d="M1028.47 1274.87C1028.17 1273 1027.76 1271.15 1027.31 1269.31C1025.52 1261.87 1025.04 1253.89 1026.29 1245.58C1030.3 1218.83 1051.82 1197.5 1078.62 1193.79C1114.72 1188.8 1146.52 1215.53 1148.76 1250.93C1152.48 1248.55 1156.77 1247.78 1160.68 1249.24C1168.19 1252.04 1171.44 1261.91 1167.94 1271.3C1164.44 1280.68 1155.52 1286.02 1148.01 1283.23C1146.97 1282.84 1146.02 1282.3 1145.15 1281.66C1143.99 1311.97 1120.78 1336.79 1091.15 1338.18C1076.66 1338.86 1063.18 1333.81 1052.71 1324.96C1038.48 1314.5 1031.29 1292.3 1028.47 1274.87Z" />
				</g>
				<path id="&lt;Path&gt;" class="shp12" d="M1073.41 1255.11C1073.29 1258.64 1073.26 1262.09 1073.08 1265.46C1072.86 1268.76 1072.5 1272.29 1071.18 1274.62C1069.83 1276.5 1068.77 1277.71 1068.73 1280.02C1068.65 1282.36 1069.89 1284.45 1071.42 1285.73C1074.57 1288.38 1078.65 1288.63 1082.03 1287.8C1078.59 1287.19 1075.28 1286 1073.36 1283.75C1072.47 1282.63 1071.88 1281.38 1072.08 1280.21C1072.23 1278.92 1072.63 1278.65 1074.19 1276.49C1075.3 1274.6 1075.65 1272.69 1075.86 1270.85C1076.03 1269 1076.01 1267.2 1075.84 1265.41C1075.49 1261.86 1074.74 1258.4 1073.41 1255.11Z" />
				<path id="&lt;Path&gt;" class="shp13" d="M1093.86 1259.77C1094 1262.74 1096.52 1265.04 1099.49 1264.9C1102.46 1264.76 1104.75 1262.24 1104.61 1259.27C1104.47 1256.3 1101.95 1254.01 1098.98 1254.15C1096.01 1254.29 1093.72 1256.8 1093.86 1259.77Z" />
				<path id="&lt;Path&gt;" class="shp13" d="M1047.84 1264.96C1047.98 1267.93 1050.5 1270.22 1053.47 1270.09C1056.44 1269.95 1058.73 1267.43 1058.59 1264.46C1058.45 1261.49 1055.93 1259.2 1052.96 1259.34C1050 1259.47 1047.7 1261.99 1047.84 1264.96Z" />
				<path id="&lt;Path&gt;" class="shp12" d="M1102.89 1296.21C1101.47 1297.44 1100 1298.58 1098.44 1299.59C1096.9 1300.62 1095.31 1301.56 1093.65 1302.36C1090.34 1303.96 1086.82 1305.13 1083.2 1305.57C1079.59 1306.02 1075.91 1305.71 1072.36 1304.77C1068.83 1303.78 1065.47 1302.15 1062.28 1300.19C1065.74 1303.1 1068.59 1304.54 1072.05 1305.81C1075.67 1307.02 1079.3 1307.43 1083.38 1306.97C1087.18 1306.47 1090.86 1305.2 1094.15 1303.32C1097.44 1301.44 1100.47 1299.08 1102.89 1296.21Z" />
				<path id="&lt;Path&gt;" class="shp10" d="M1087.1 1247.62C1089.84 1246.77 1092.42 1246.13 1094.97 1245.73C1097.52 1245.34 1100.01 1245.27 1102.45 1245.57C1104.86 1245.89 1107.3 1246.41 1109.64 1247.47C1111.43 1248.03 1115.77 1250.59 1116.91 1251.09C1115.58 1248.64 1113.65 1246.02 1111.26 1244.57C1108.9 1242.77 1105.92 1241.73 1102.92 1241.36C1099.9 1241 1096.82 1241.44 1094.08 1242.54C1091.36 1243.65 1088.86 1245.32 1087.1 1247.62Z" />
				<path id="&lt;Path&gt;" class="shp10" d="M1063.4 1250.29C1061.23 1248.37 1058.46 1247.22 1055.57 1246.66C1052.67 1246.11 1049.56 1246.28 1046.67 1247.22C1043.8 1248.17 1041.08 1249.76 1039.11 1251.98C1037.05 1253.87 1035.66 1256.82 1034.84 1259.48C1035.87 1258.76 1039.62 1255.41 1041.27 1254.52C1043.36 1253.03 1045.64 1252.04 1047.95 1251.25C1050.28 1250.49 1052.74 1250.08 1055.31 1249.97C1057.89 1249.86 1060.55 1249.99 1063.4 1250.29Z" />
			</g>
			<g id="&lt;Group&gt;">
				<path id="&lt;Path&gt;" class="shp9" d="M1089.14 1620.36C1097.16 1674.77 1074.88 1706.72 1022.31 1716.2C969.74 1725.68 910.75 1729 845.34 1726.17L831.68 1913.65L790.52 1915.75C719.85 1742.09 733.42 1641.69 831.24 1614.54L963.1 1615.19L1017.39 1611.31C1054.02 1602.26 1072.55 1598.6 1072.98 1600.32C1073.63 1602.91 1087.85 1621.65 1089.14 1620.36Z" />
			</g>
			<path id="&lt;Path&gt;" class="shp8" d="M1161.61 1620.79C1169.63 1675.2 1147.35 1707.15 1094.78 1716.63C1042.21 1726.11 983.22 1729.43 917.81 1726.6L904.15 1914.08L862.99 1916.18C792.32 1742.52 805.89 1642.12 903.71 1614.97L1035.57 1615.62L1089.86 1611.74C1126.49 1602.69 1145.02 1599.03 1145.45 1600.75C1146.1 1603.34 1160.32 1622.08 1161.61 1620.79Z" />
			<g id="&lt;Group&gt;">
				<path id="&lt;Path&gt;" class="shp6" d="M1062.28 1352.98C1026.09 1357.57 1003.39 1363.61 994.2 1371.08C985.01 1378.55 958.29 1437.15 914.05 1546.89L969.21 1611.53L1086.41 1612.39C1145.02 1643.99 1192.71 1644.85 1229.48 1614.97C1284.64 1570.16 1256.2 1414.17 1224.31 1380.56C1203.05 1358.15 1173.46 1347.23 1135.54 1347.81C1101.07 1371.94 1076.65 1373.66 1062.28 1352.98Z" />
			</g>
			<path id="&lt;Path&gt;" class="shp0" d="M1167.43 1434.85C1165.48 1443.82 1164.3 1452.93 1163.45 1462.07C1162.98 1466.63 1162.78 1471.22 1162.52 1475.8C1162.38 1480.39 1162.27 1484.99 1162.34 1489.59C1162.52 1498.78 1163.02 1508 1164.6 1517.1C1166.14 1526.16 1168.38 1535.25 1172.6 1543.44C1169.76 1534.71 1168.36 1525.73 1167.34 1516.72C1166.34 1507.71 1166 1498.62 1165.88 1489.54C1165.69 1480.45 1165.91 1471.35 1166.2 1462.24C1166.52 1453.13 1166.94 1444.01 1167.43 1434.85Z" />
			<path id="&lt;Path&gt;" class="shp0" d="M1004.97 1428.82C1002.49 1442.17 999.87 1455.47 997.2 1468.75C994.47 1482.02 991.65 1495.26 988.44 1508.4C985.26 1521.54 981.73 1534.59 977.47 1547.4C975.33 1553.79 972.94 1560.11 970.14 1566.23C967.38 1572.38 964.11 1578.32 959.73 1583.52C964.71 1578.86 968.38 1572.96 971.7 1567.01C974.91 1560.98 977.68 1554.72 980.07 1548.33C982.51 1541.96 984.6 1535.47 986.58 1528.95C988.5 1522.42 990.25 1515.84 991.88 1509.23C993.44 1502.61 994.93 1495.97 996.27 1489.31C997.56 1482.64 998.84 1475.96 999.91 1469.25C1002.12 1455.84 1003.85 1442.36 1004.97 1428.82Z" />
			<g id="&lt;Group&gt;">
				<path id="&lt;Path&gt;" class="shp11" d="M977.69 1574.27C978.03 1571.54 998.75 1568.5 1006.36 1568.1C1012.13 1567.81 1050.37 1566.53 1063.38 1565.94L1062.42 1569.29L1062.62 1584.06L1064.75 1593.84C1053.34 1594.57 1025.45 1595.66 1019.64 1596.81C1014.46 1597.83 1007.39 1600.29 998.42 1604.19C994.69 1603.34 995.19 1601.9 999.93 1599.85C1005.64 1597.39 1009.65 1593.57 1011.35 1591.67C1012.33 1590.58 1011.27 1588.63 1010.56 1588.82C997.65 1592.2 990.53 1594.18 989.2 1594.74C974.02 1594.65 973.98 1592.9 989.07 1589.49C1002.64 1586.43 1007.5 1584.64 1008.71 1583.12C1009.22 1582.47 1008.3 1580.27 1007.48 1580.22C995.72 1579.49 974.63 1583.66 980.4 1580.92C985.12 1578.7 999.96 1576.25 1005.73 1575.33C1006.08 1575.28 1006.66 1573.13 1005.08 1572.99C993.88 1572.06 977.37 1576.81 977.69 1574.27Z" />
			</g>
			<path id="&lt;Path&gt;" class="shp0" d="M1180.68 1541.18C1175.91 1542.34 1171.21 1543.67 1166.42 1544.67C1161.67 1545.8 1156.85 1546.63 1152.08 1547.64C1142.47 1549.39 1132.83 1550.91 1123.16 1552.27C1113.49 1553.54 1103.8 1554.71 1094.08 1555.65C1084.4 1556.61 1074.56 1557.43 1064.98 1557.97L1063.69 1558.04L1063.41 1559.16C1062.58 1562.4 1062.05 1565.57 1061.64 1568.82C1061.23 1572.06 1061.06 1575.32 1061.07 1578.59C1061.09 1581.85 1061.37 1585.12 1061.91 1588.36C1062.51 1591.59 1063.46 1594.75 1064.75 1597.78L1064.86 1598.04L1065.07 1598.18L1075.71 1605.33C1079.26 1607.71 1082.82 1610.07 1086.41 1612.39C1083.08 1609.71 1079.71 1607.09 1076.32 1604.48L1066.18 1596.65L1066.5 1597.05C1065.43 1594.12 1064.68 1591.09 1064.27 1587.99C1063.89 1584.88 1063.72 1581.75 1063.81 1578.61C1063.91 1575.47 1064.23 1572.34 1064.66 1569.23C1065.12 1566.13 1065.73 1562.99 1066.55 1560.05L1064.98 1561.24C1070.04 1561.1 1074.84 1560.78 1079.76 1560.42C1084.66 1560.06 1089.55 1559.67 1094.43 1559.15C1104.19 1558.15 1113.93 1556.93 1123.63 1555.38C1133.32 1553.82 1142.96 1551.92 1152.51 1549.67C1157.27 1548.45 1162.03 1547.28 1166.72 1545.8C1171.44 1544.47 1176.07 1542.82 1180.68 1541.18Z" />
			<g id="&lt;Group&gt;">
				<path id="&lt;Path&gt;" class="shp10" d="M732.5 1464.59L944.51 1464.59L1004.62 1611.31L1106.75 1611.31C1109.6 1611.31 1111.92 1613.63 1111.92 1616.48C1111.92 1619.34 1109.6 1621.65 1106.75 1621.65L802.95 1621.65L732.5 1464.59Z" />
			</g>
			<g id="&lt;Group&gt;">
				<path id="&lt;Path&gt;" class="shp4" d="M837.63 1548.31C838.88 1554.57 844.33 1558.75 849.8 1557.65C855.27 1556.56 858.69 1550.6 857.44 1544.35C856.19 1538.09 850.74 1533.91 845.27 1535.01C839.8 1536.1 836.37 1542.06 837.63 1548.31Z" />
			</g>
			<path id="&lt;Path&gt;" class="shp10" d="M1018.4 1196.49C1006.34 1196.88 1006.63 1191.97 1019.3 1181.77C1038.29 1166.46 1089.29 1148.51 1121.98 1165.78C1126.34 1156.51 1131.67 1152.99 1137.97 1155.2C1144.27 1157.41 1142.22 1161.7 1131.82 1168.08C1139.87 1167.82 1145.12 1169.66 1147.57 1173.61C1150.29 1177.98 1142.91 1178.17 1138.87 1177.98C1145.73 1179.15 1172.07 1195.78 1158.85 1248.88C1155.72 1248.19 1145.23 1234.91 1127.38 1209.03C1086.57 1231.7 1068.18 1234.02 1072.22 1215.99C1029.93 1242.38 1011.79 1244.68 1017.79 1222.88C1001.44 1224.08 1001.64 1215.28 1018.4 1196.49Z" />
			<path id="&lt;Path&gt;" class="shp10" d="M1158.9 1249.2C1155.52 1248.01 1152.02 1248.86 1148.38 1251.74C1144.75 1254.63 1143.13 1261.14 1143.53 1271.27C1126.18 1282.46 1118.42 1264.38 1120.25 1217.04C1122.2 1166.68 1129.44 1168.7 1141.96 1223.1L1158.9 1249.2Z" />
			<g id="&lt;Group&gt;">
				<g id="&lt;Group&gt;">
					<path id="&lt;Path&gt;" class="shp4" d="M1975.83 1924.25L2514.01 1924.25L2514.01 1894.4L1975.83 1894.4L1975.83 1924.25Z" />
				</g>
				<g id="&lt;Group&gt;">
					<path id="&lt;Path&gt;" class="shp4" d="M2499 1663.48L2507.16 1701.02C2510.29 1715.41 2501.11 1729.61 2486.69 1732.65L2006.06 1834.08C1991.31 1837.19 1976.93 1827.43 1974.39 1812.57L1970.16 1787.92C1968.25 1776.72 1973.67 1765.53 1983.66 1760.1L2127.6 1681.81C2130.65 1680.15 2133.99 1679.11 2137.44 1678.74L2467.16 1643.11L2469.53 1642.8C2483.24 1640.97 2496.06 1649.97 2499 1663.48Z" />
				</g>
				<g id="&lt;Group&gt;">
					<path id="&lt;Path&gt;" class="shp7" d="M2012.89 1775.03C1967.13 1808.35 1960.91 1852.5 1994.23 1907.46L1991.25 1928.72L1903.21 1934.69L1822.63 1918.28L1807.71 1783.98L2000.95 1726.53L2012.89 1775.03Z" />
				</g>
				<g id="&lt;Group&gt;">
					<path id="&lt;Path&gt;" class="shp6" d="M1811.56 1972.99L2558.9 1972.99C2565.98 1972.99 2571.71 1967.26 2571.71 1960.19L2571.71 1920.27C2571.71 1913.2 2565.98 1907.46 2558.9 1907.46L1811.56 1907.46C1804.49 1907.46 1798.76 1913.2 1798.76 1920.27L1798.76 1960.19C1798.76 1967.26 1804.49 1972.99 1811.56 1972.99Z" />
				</g>
				<g id="&lt;Group&gt;">
					<path id="&lt;Path&gt;" class="shp6" d="M2554.45 1654.86L2005.13 1784.39C2000.73 1785.43 1996.15 1785.29 1991.81 1784.05C1970.19 1777.84 1896.91 1762.36 1835.25 1814.99C1820.69 1827.42 1798.2 1820.81 1792.97 1802.41L1783.14 1767.85C1779.95 1756.66 1784.55 1744.71 1794.42 1738.54C1874.17 1688.63 2223.33 1479.61 2453.19 1495.52C2474.87 1497.02 2494.41 1509.1 2505.45 1527.81L2565.34 1629.3C2571.25 1639.32 2565.76 1652.19 2554.45 1654.86Z" />
				</g>
				<g id="&lt;Group&gt;">
					<path id="&lt;Path&gt;" class="shp6" d="M1874.36 1854.96C1874.36 1873.09 1889.06 1887.79 1907.19 1887.79C1925.32 1887.79 1940.02 1873.09 1940.02 1854.96C1940.02 1836.83 1925.32 1822.13 1907.19 1822.13C1889.06 1822.13 1874.36 1836.83 1874.36 1854.96Z" />
				</g>
			</g>
			<g id="&lt;Group&gt;">
				<path id="&lt;Path&gt;" class="shp6" d="M1973.67 386.62C2014.87 379.67 2042.38 399.21 2056.21 445.24L2030.61 483.55C1994.83 469.8 1976.86 462.26 1976.72 460.91C1976.58 459.56 1975.56 434.8 1973.67 386.62Z" />
			</g>
			<g id="&lt;Group&gt;">
				<path id="&lt;Path&gt;" class="shp6" d="M1874.2 417.72C1862.18 435.79 1853.11 448.41 1846.98 455.58C1823.85 482.62 1820.87 474.14 1806.49 497.39C1790.97 522.5 1806.67 538.22 1815.6 545.45C1824.52 552.69 1809.59 579.45 1826.22 594.45C1847.98 614.09 1868.12 595.57 1883.09 606.57C1898.06 617.57 1901.34 633.88 1936.83 630.8C1960.49 628.74 1972.21 589.03 1971.98 511.67C1952.61 470.66 1942.54 449.98 1941.77 449.64C1941 449.3 1918.48 438.66 1874.2 417.72Z" />
			</g>
			<g id="&lt;Group&gt;">
				<path id="&lt;Path&gt;" class="shp6" d="M2056.21 445.24C2057.62 459.44 2060.67 470.62 2065.37 478.8C2083.08 509.66 2092.63 499.55 2102.44 525.07C2113.04 552.62 2094.69 565.15 2084.58 570.61C2074.47 576.06 2084.18 605.13 2065.06 616.79C2040.03 632.05 2023.68 610.12 2006.93 618.15C1990.18 626.19 1983.93 641.6 1949.63 631.99C1926.76 625.59 1922.61 584.4 1937.18 508.42C1963.82 471.7 1977.55 453.25 1978.37 453.06C1979.18 452.87 2005.13 450.27 2056.21 445.24Z" />
			</g>
			<g id="&lt;Group&gt;">
				<path id="&lt;Path&gt;" class="shp11" d="M1966.54 582.66C1927.05 575.4 1898.22 572.07 1880.06 572.69C1861.9 573.3 1867.41 597.22 1896.57 644.43L1941.06 645.42C1959.24 625.11 1967.73 613.78 1966.54 611.42C1965.34 609.05 1965.37 600.13 1966.62 584.63L1966.54 582.66Z" />
			</g>
			<g id="&lt;Group&gt;">
				<g id="&lt;Group&gt;">
					<path id="&lt;Path&gt;" class="shp11" d="M1913.72 526.14L1898.1 573.57C1907.16 592.31 1925.58 597.65 1953.36 589.56C1950.19 583.01 1950.73 573 1954.98 559.51C1959.32 545.73 1945.57 534.61 1913.72 526.14Z" />
				</g>
				<g id="&lt;Group&gt;" style="opacity: 0.6">
					<path id="&lt;Path&gt;" class="shp14" d="M1913.72 526.14L1906.39 548.3C1910.75 564.49 1924.93 575.51 1951.67 578.94C1951.66 574.12 1952.4 567.68 1954.98 559.51C1959.32 545.73 1945.57 534.61 1913.72 526.14Z" />
				</g>
				<g id="&lt;Group&gt;">
					<g id="&lt;Group&gt;">
						<path id="&lt;Path&gt;" class="shp12" d="M2009.02 491.42C2005.64 499.12 2007.9 507.56 2014.06 510.26C2020.22 512.97 2027.95 508.92 2031.34 501.22C2034.72 493.52 2032.46 485.08 2026.3 482.38C2020.14 479.67 2012.41 483.72 2009.02 491.42Z" />
					</g>
					<g id="&lt;Group&gt;">
						<path id="&lt;Path&gt;" class="shp11" d="M2010.75 526.39C2014.75 516.48 2016.91 505.89 2018.06 496.64C2018.3 494.66 2018.66 492.69 2019.06 490.73C2020.67 482.81 2020.86 474.38 2019.23 465.66C2013.96 437.6 1990.44 415.94 1962.03 413.07C1923.77 409.21 1891.26 438.63 1890.27 476.05C1886.26 473.68 1881.7 473.04 1877.63 474.73C1869.82 477.97 1866.78 488.51 1870.83 498.27C1874.88 508.04 1884.5 513.32 1892.31 510.08C1893.39 509.63 1894.37 509.03 1895.27 508.32C1897.66 540.24 1923.1 565.52 1954.41 565.83C1977.91 566.07 2001.04 551.82 2010.75 526.39Z" />
					</g>
					<path id="&lt;Path&gt;" class="shp12" d="M1969.9 477.53C1968.66 481.06 1968.02 484.74 1967.81 488.5C1967.71 490.38 1967.76 492.28 1968.01 494.22C1968.31 496.14 1968.76 498.13 1969.98 500.06C1971.41 501.88 1972.15 502.49 1972.36 503.95C1972.62 505.21 1972.03 506.58 1971.12 507.8C1969.14 510.26 1965.68 511.61 1962.07 512.34C1965.67 513.05 1969.94 512.6 1973.12 509.7C1974.68 508.3 1975.88 506.07 1975.7 503.64C1975.53 501.12 1974.39 500 1972.93 498.09C1972.15 496.92 1971.68 495.29 1971.31 493.64C1970.91 491.98 1970.79 490.21 1970.57 488.44C1970.26 484.88 1970.12 481.25 1969.9 477.53Z" />
					<path id="&lt;Path&gt;" class="shp13" d="M1948.51 483.25C1948.48 486.39 1945.91 488.9 1942.77 488.87C1939.64 488.84 1937.12 486.27 1937.15 483.13C1937.19 480 1939.75 477.48 1942.89 477.51C1946.03 477.54 1948.54 480.11 1948.51 483.25Z" />
					<path id="&lt;Path&gt;" class="shp13" d="M1997.25 486.94C1997.21 490.08 1994.64 492.59 1991.51 492.56C1988.37 492.53 1985.86 489.96 1985.89 486.82C1985.92 483.69 1988.49 481.17 1991.62 481.2C1994.76 481.23 1997.28 483.8 1997.25 486.94Z" />
					<g id="&lt;Group&gt;" style="opacity: 0.302;mix-blend-mode: multiply">
						<path id="&lt;Path&gt;" class="shp12" d="M1947.51 526.43C1952.93 524.49 1958.18 525.19 1963.28 528.53C1968.79 525.08 1973.71 525 1978.05 528.3C1976.04 536.5 1970.51 540.32 1961.46 539.77C1952.41 539.22 1947.76 534.77 1947.51 526.43Z" />
					</g>
					<g id="&lt;Group&gt;">
						<path id="&lt;Path&gt;" class="shp12" d="M1940.4 522.02C1941.94 523.27 1943.54 524.41 1945.22 525.41C1946.88 526.45 1948.6 527.38 1950.38 528.15C1953.94 529.71 1957.69 530.81 1961.52 531.13C1965.35 531.47 1969.22 531 1972.92 529.87C1976.61 528.69 1980.1 526.84 1983.38 524.65C1981.92 525.97 1980.34 527.19 1978.66 528.27C1976.98 529.35 1975.16 530.19 1973.3 530.95C1971.41 531.66 1969.45 532.17 1967.45 532.46C1965.45 532.72 1963.41 532.77 1961.39 532.62C1957.36 532.24 1953.44 531.04 1949.89 529.18C1946.35 527.33 1943.07 524.96 1940.4 522.02Z" />
					</g>
					<g id="&lt;Group&gt;">
						<path id="&lt;Path&gt;" class="shp6" d="M1955.16 470.17C1952.24 469.38 1949.5 468.8 1946.79 468.48C1944.09 468.17 1941.46 468.19 1938.9 468.6C1936.37 469.04 1933.82 469.68 1931.4 470.89C1929.53 471.54 1925.04 474.41 1923.87 474.98C1925.17 472.36 1927.11 469.51 1929.57 467.88C1931.99 465.89 1935.09 464.69 1938.24 464.18C1941.41 463.68 1944.68 464.03 1947.61 465.08C1950.53 466.15 1953.22 467.81 1955.16 470.17Z" />
					</g>
					<g id="&lt;Group&gt;">
						<path id="&lt;Path&gt;" class="shp6" d="M1980.27 472.07C1982.49 469.96 1985.36 468.64 1988.39 467.93C1991.42 467.24 1994.71 467.3 1997.8 468.18C2000.86 469.07 2003.79 470.64 2005.95 472.91C2008.2 474.83 2009.77 477.88 2010.75 480.65C2009.64 479.94 2005.54 476.55 2003.77 475.67C2001.51 474.18 1999.06 473.23 1996.6 472.49C1994.11 471.77 1991.5 471.43 1988.78 471.41C1986.06 471.4 1983.26 471.64 1980.27 472.07Z" />
					</g>
				</g>
			</g>
			<g id="&lt;Group&gt;">
				<path id="&lt;Path&gt;" class="shp1" d="M1863.5 872.41C1851.86 927.21 1872.46 961.12 1925.3 974.14C1978.14 987.15 2037.9 994.32 2104.59 995.64L2106.44 1187.13L2148.16 1191.9C2231.16 1019.88 2223.8 916.93 2126.09 883.05L1991.99 875.24L1937.03 867.81C1900.37 856.26 1881.77 851.35 1881.22 853.07C1880.4 855.66 1864.74 873.81 1863.5 872.41Z" />
			</g>
			<g id="&lt;Group&gt;">
				<path id="&lt;Path&gt;" class="shp5" d="M1789.8 868.2C1778.15 923 1798.75 956.91 1851.59 969.92C1904.43 982.94 1964.19 990.1 2030.88 991.43L2032.73 1182.91L2074.45 1187.69C2157.45 1015.67 2150.09 912.71 2052.38 878.83L1918.28 871.03L1863.32 863.6C1826.66 852.05 1808.06 847.14 1807.51 848.86C1806.69 851.45 1791.03 869.59 1789.8 868.2Z" />
			</g>
			<path id="&lt;Path&gt;" class="shp4" d="M2054.85 996.92C2052.57 996.5 2050.28 996.11 2048.03 995.58C2045.77 995.06 2043.54 994.45 2041.34 993.79C2040.24 993.44 2039.12 993.07 2038.03 992.67C2039.18 992.43 2040.29 992.1 2041.39 991.71C2043.57 990.94 2045.6 989.83 2047.51 988.57C2049.36 987.21 2051.11 985.74 2052.63 984.06C2054.17 982.39 2055.49 980.55 2056.65 978.63L2054.38 981.1C2053.56 981.86 2052.81 982.67 2051.96 983.38C2050.34 984.88 2048.54 986.14 2046.69 987.29C2044.82 988.42 2042.84 989.33 2040.81 990.05C2038.78 990.73 2036.59 991.23 2034.58 991.3L2030.87 991.44L2034.16 992.97C2036.39 994 2038.61 994.68 2040.89 995.32C2043.16 995.96 2045.48 996.41 2047.79 996.8C2050.1 997.18 2052.42 997.5 2054.76 997.68C2057.09 997.85 2059.43 997.96 2061.76 997.95C2059.45 997.62 2057.14 997.33 2054.85 996.92Z" />
			<g id="&lt;Group&gt;">
				<path id="&lt;Path&gt;" class="shp11" d="M2033.85 698.07C2037.45 787.61 2044.28 839.4 2054.35 853.42L1971.28 834.54L1971.28 688.36L2033.85 698.07Z" />
			</g>
			<g id="&lt;Group&gt;">
				<path id="&lt;Path&gt;" class="shp8" d="M1998.46 716.41C1990.75 738.95 1986.2 756.2 1984.8 768.17C1979.58 812.77 1985.25 844.22 1994.48 869.61C2007.42 905.21 1901.7 892.26 1899.54 891.18C1898.1 890.46 1867.17 878.42 1806.76 855.04L1789.5 804.87L1789.5 716.41L1794.35 675.95L1998.46 716.41Z" />
			</g>
			<g id="&lt;Group&gt;">
				<path id="&lt;Path&gt;" class="shp11" d="M1745.26 675.95L1811.79 698.61C1804.12 769.57 1801.48 810.09 1803.88 820.16C1806.96 833.07 1855.2 858.74 1885.78 873.11C1890.7 875.42 1896.12 876.41 1901.54 875.97C1918.96 874.53 1949.83 871.84 1954.67 871.5C1962.28 870.98 1983.21 871.52 1983.88 874.18C1984.5 876.66 1967.53 873.93 1956.53 876.21C1954.98 876.52 1955.81 878.59 1956.17 878.6C1962.01 878.82 1977.03 879.47 1981.98 881.11C1988.04 883.13 1966.6 881.53 1955.02 883.66C1954.21 883.81 1953.56 886.11 1954.15 886.69C1955.53 888.06 1960.57 889.25 1974.41 890.66C1989.8 892.23 1989.96 893.97 1974.91 895.88C1973.52 895.49 1966.22 894.38 1952.99 892.57C1952.27 892.47 1951.45 894.53 1952.55 895.5C1954.46 897.18 1958.9 900.49 1964.87 902.25C1969.82 903.71 1970.49 905.09 1966.89 906.38C1957.51 903.58 1950.2 901.99 1944.94 901.59C1939.03 901.15 1911.21 903.42 1899.79 904.07L1898.92 902.11C1883.45 901.66 1760.02 898.46 1748.14 821.96C1739.99 769.45 1739.03 720.78 1745.26 675.95Z" />
			</g>
			<g id="&lt;Group&gt;">
				<g id="&lt;Group&gt;">
					<path id="&lt;Path&gt;" class="shp10" d="M2228.84 752.18L2016.83 752.18L1956.72 898.91L1854.6 898.91C1851.74 898.91 1849.42 901.23 1849.42 904.08C1849.42 906.94 1851.74 909.25 1854.6 909.25L2158.39 909.25L2228.84 752.18Z" />
				</g>
				<g id="&lt;Group&gt;">
					<path id="&lt;Path&gt;" class="shp4" d="M2123.72 835.91C2122.47 842.17 2117.01 846.35 2111.54 845.25C2106.07 844.16 2102.65 838.2 2103.9 831.95C2105.15 825.69 2110.6 821.51 2116.07 822.61C2121.55 823.7 2124.97 829.66 2123.72 835.91Z" />
				</g>
			</g>
			<g id="&lt;Group&gt;">
				<path id="&lt;Path&gt;" class="shp8" d="M1966.54 582.66C1939.69 614 1910.87 610.67 1880.06 572.69C1846.41 569.95 1817.18 577.39 1792.36 595.01C1767.55 612.63 1747.71 641.23 1732.86 680.81C1777.81 703.46 1805.86 715.33 1817.01 716.41L2004.19 716.41C2023.25 714.97 2041.95 709.58 2060.29 700.23C2057.12 637.32 2025.87 598.13 1966.54 582.66Z" />
			</g>
			<path id="&lt;Path&gt;" class="shp10" d="M1841.62 662.85C1839.88 668.68 1838.32 674.55 1836.77 680.44C1833.86 691.98 1831.2 702.98 1829.24 714.8C1825.59 714.97 1821.48 714.44 1817.87 713.92C1798.43 710.46 1785.66 705.01 1768.35 697.93C1742.42 686.11 1745.92 687.26 1732.86 680.81C1748.04 690.41 1756.22 694.74 1767.27 700.27C1782.44 707.3 1796.93 713.8 1817.33 717.39C1826.24 718.61 1828.81 718.34 1832.2 717.96C1833.51 709.3 1835.02 700.43 1839.16 681L1843.01 663.21L1846.98 645.42C1845.05 651.19 1843.35 657.02 1841.62 662.85Z" />
			<path id="&lt;Path&gt;" class="shp10" d="M1989.29 631.77C1991.93 638.67 1994.33 645.6 1996.47 652.59C1998.57 659.59 2000.43 666.64 2001.67 673.78C2002.85 679.85 2003.66 687.86 2003.38 695.34C2003.11 702.55 1992.44 736.45 1989.29 743.16C1993.73 737.21 2005.35 703.02 2006.14 695.56C2007.04 688.07 2006.42 680.51 2005.16 673.16C2003.75 665.75 2001.89 658.85 1999.08 651.69C1996.41 644.77 1993.25 638.03 1989.29 631.77Z" />
			<g id="&lt;Group&gt;">
				<path id="&lt;Path&gt;" class="shp6" d="M1890.27 476.05C1936.37 464.93 1970.44 443.7 1992.46 412.38C1992.85 383.85 1971.88 372.82 1929.55 379.29C1867.86 388.72 1853.42 448.75 1890.27 476.05Z" />
			</g>
			<g id="&lt;Group&gt;">
				<path id="&lt;Path&gt;" class="shp15" d="M2576.03 1999.58L421.63 1999.58C415.27 1999.58 410.1 1994.42 410.1 1988.05L410.1 1982.75C410.1 1976.38 415.27 1971.22 421.63 1971.22L2576.03 1971.22C2582.39 1971.22 2587.55 1976.38 2587.55 1982.75L2587.55 1988.05C2587.55 1994.42 2582.39 1999.58 2576.03 1999.58Z" />
			</g>
			<g id="&lt;Group&gt;">
				<path id="&lt;Path&gt;" class="shp1" d="M396.9 1037.18L812.82 799.29L869.03 910.64L443.45 1135.79L396.9 1037.18Z" />
			</g>
			<g id="&lt;Group&gt;">
				<path id="&lt;Path&gt;" class="shp8" d="M1180.68 359.56C1178.49 381.12 1168.89 392.65 1151.87 394.14C1168.89 395.63 1178.49 407.16 1180.68 428.73C1182.86 407.16 1192.47 395.63 1209.49 394.14C1192.47 392.65 1182.86 381.12 1180.68 359.56Z" />
			</g>
			<g id="&lt;Group&gt;">
				<path id="&lt;Path&gt;" class="shp5" d="M739.64 111.06C736.73 139.78 723.94 155.14 701.27 157.13C723.94 159.11 736.73 174.47 739.64 203.19C742.56 174.47 755.35 159.11 778.01 157.13C755.35 155.14 742.56 139.78 739.64 111.06Z" />
			</g>
			<g id="&lt;Group&gt;">
				<path id="&lt;Path&gt;" class="shp6" d="M561.51 496.43C559.55 515.72 550.96 526.03 535.74 527.36C550.96 528.7 559.55 539.01 561.51 558.3C563.46 539.01 572.05 528.7 587.27 527.36C572.05 526.03 563.46 515.72 561.51 496.43Z" />
			</g>
			<g id="&lt;Group&gt;">
				<path id="&lt;Path&gt;" class="shp6" d="M2507.77 1089.73C2504.86 1118.45 2492.07 1133.81 2469.4 1135.79C2492.07 1137.78 2504.86 1153.14 2507.77 1181.86C2510.69 1153.14 2523.48 1137.78 2546.14 1135.79C2523.48 1133.81 2510.69 1118.45 2507.77 1089.73Z" />
			</g>
			<g id="&lt;Group&gt;">
				<path id="&lt;Path&gt;" class="shp8" d="M147.07 807.36C144.16 836.08 131.37 851.44 108.7 853.42C131.37 855.41 144.16 870.77 147.07 899.49C149.99 870.77 162.78 855.41 185.44 853.42C162.78 851.44 149.99 836.08 147.07 807.36Z" />
			</g>
			<g id="&lt;Group&gt;">
				<path id="&lt;Path&gt;" class="shp8" d="M2636.97 753.22C2634.05 781.95 2621.26 797.3 2598.6 799.29C2621.26 801.28 2634.05 816.63 2636.97 845.36C2639.88 816.63 2652.67 801.28 2675.34 799.29C2652.67 797.3 2639.88 781.95 2636.97 753.22Z" />
			</g>
			<g id="&lt;Group&gt;">
				<path id="&lt;Path&gt;" class="shp6" d="M1614.59 84.56C1611.67 113.28 1598.88 128.64 1576.21 130.62C1598.88 132.61 1611.67 147.97 1614.59 176.69C1617.5 147.97 1630.29 132.61 1652.96 130.62C1630.29 128.64 1617.5 113.28 1614.59 84.56Z" />
			</g>
			<g id="&lt;Group&gt;">
				<path id="&lt;Path&gt;" class="shp5" d="M2343 415.3C2341.41 433.44 2334.46 443.13 2322.14 444.39C2334.46 445.64 2341.41 455.34 2343 473.47C2344.58 455.34 2351.53 445.64 2363.85 444.39C2351.53 443.13 2344.58 433.44 2343 415.3Z" />
			</g>
		</g>
	</g>
</svg>