<svg version="1.2" baseProfile="tiny-ps" xmlns="http://www.w3.org/2000/svg" viewBox="0 0 1500 1000" width="1500" height="1000">
	<title>2785837-ai</title>
	<style>
		tspan { white-space:pre }
		.shp0 { opacity: 0.161;fill: #ffb000 } 
		.shp1 { opacity: 0.2;fill: #1b73f0 } 
		.shp2 { fill: #2e53bc } 
		.shp3 { fill: #284c8c } 
		.shp4 { fill: #ff9700 } 
		.shp5 { opacity: 0.22;fill: #d38c0d } 
		.shp6 { fill: #6478ff } 
		.shp7 { fill: #ffb000 } 
		.shp8 { fill: none;stroke: #ff9700;stroke-width: 1.648 } 
		.shp9 { fill: #fcb4d2 } 
		.shp10 { fill: #fc86bc } 
		.shp11 { fill: #02132b } 
		.shp12 { fill: #042956 } 
		.shp13 { opacity: 0.149;fill: #d38c0d } 
		.shp14 { fill: #ffffff } 
		.shp15 { fill: #ff5d00 } 
		.shp16 { fill: none;stroke: #ff5d00;stroke-width: 3.297 } 
		.shp17 { fill: #dd4d05 } 
		.shp18 { fill: #f2f2f2 } 
		.shp19 { fill: #1b73f0 } 
		.shp20 { opacity: 0.341;fill: #0a3e89 } 
		.shp21 { fill: #001a49 } 
		.shp22 { fill: #ff8bb7 } 
		.shp23 { fill: #f268a0 } 
		.shp24 { fill: #c9dfff } 
		.shp25 { fill: #b6d7ff } 
		.shp26 { fill: #606060 } 
		.shp27 { fill: none;stroke: #2e53bc;stroke-width: 6.734 } 
		.shp28 { fill: #f2649e } 
		.shp29 { fill: #a5cff9 } 
		.shp30 { fill: #d38c0d } 
		.shp31 { fill: #ea5e89 } 
		.shp32 { fill: #e6e6e6 } 
		.shp33 { fill: #415bd8 } 
		.shp34 { fill: #022b66 } 
		.shp35 { fill: none;stroke: #ffb000;stroke-linejoin:round;stroke-width: 0.915 } 
		.shp36 { fill: none;stroke: #ffb000;stroke-linejoin:round;stroke-width: 0.915;stroke-dasharray: 4,4 } 
		.shp37 { fill: none;stroke: #ffb000;stroke-linejoin:round;stroke-width: 0.915;stroke-dasharray: 4 } 
		.shp38 { fill: #00368b } 
		.shp39 { opacity: 0.369;fill: #022b66 } 
	</style>
	<g id="BACKGROUND">
		<path id="&lt;Path&gt;" class="shp0" d="M717.55 800.83C707.37 802.2 243.85 865.05 114.55 549.71C-37.05 179.99 187.98 115.86 419.61 175.06C651.25 234.25 851.59 176.96 992.34 125.74C1133.09 74.52 1182.51 36.25 1309.28 109.98C1447.72 190.5 1626.91 678.6 717.55 800.83Z" />
	</g>
	<g id="OBJECTS">
		<g id="&lt;Group&gt;">
			<path id="&lt;Path&gt;" class="shp1" d="M1454.21 866.32C1454.21 883.82 1310 898 1132.11 898C954.21 898 810 883.82 810 866.32C810 848.83 954.21 834.64 1132.11 834.64C1310 834.64 1454.21 848.83 1454.21 866.32Z" />
			<g id="&lt;Group&gt;">
				<path id="&lt;Path&gt;" class="shp2" d="M1338.46 855.02L1280.51 861.56C1264.67 863.34 1248.74 864.1 1232.81 863.84C1193.21 863.17 1138.49 850.41 1120.37 854.39C1071.26 865.18 1000.34 869.48 907.62 867.3L910.5 842.67L912.54 825.16C925.2 824.6 940.09 823.83 957.2 822.86C1004 820.2 1072.94 815.49 1089.22 810.15C1093.48 808.75 1101.62 806.65 1112.2 804.14C1146.73 795.92 1200.75 784.34 1274.26 769.4L1338.46 855.02Z" />
				<path id="&lt;Path&gt;" class="shp3" d="M1112.2 804.14C1108.22 807.03 1103.52 809.38 1100.67 811.23C1091.56 817.06 1082.4 822.9 1072.38 826.96C1061.57 831.35 1049.98 833.55 1039.18 837.99C1028.98 842.16 1019.65 848.26 1009.33 852.11C997.97 856.37 985.74 857.76 973.65 858.66C952.7 860.21 931.65 860.36 910.7 859.12C910.03 859.08 909.32 859.01 908.62 858.91L910.5 842.67C921.59 835.52 934.16 830.86 946.66 826.5C950.17 825.26 953.68 824.06 957.2 822.86C1004 820.2 1072.94 815.49 1089.22 810.15C1093.48 808.75 1101.62 806.65 1112.2 804.14Z" />
				<path id="&lt;Path&gt;" class="shp4" d="M1296.09 686.37C1296.79 698.54 1290.89 710.16 1283.6 719.93C1276.31 729.69 1267.48 738.3 1260.84 748.52C1258.43 752.22 1256.38 757.29 1259.08 760.79C1260.39 762.49 1262.53 763.32 1264.63 763.74C1272.68 765.34 1280.86 761.98 1288.04 758.01C1305.94 748.08 1321.55 733.48 1330.91 715.27C1335.19 706.95 1338.17 697.75 1337.91 688.4C1337.66 679.04 1333.84 669.53 1326.5 663.73C1319.91 658.53 1307.42 656.08 1299.71 660.57C1290.63 665.85 1295.62 678.01 1296.09 686.37Z" />
				<path id="&lt;Path&gt;" class="shp5" d="M1309 689.9C1304.24 700.1 1304.66 712.12 1299.9 722.31C1294.08 734.77 1281.42 742.72 1274.34 754.51C1272.63 757.37 1271.23 760.54 1271.15 763.88C1271.07 767.21 1272.52 770.73 1275.4 772.41C1277.23 773.48 1279.42 773.72 1281.54 773.75C1293.99 773.94 1305.74 767.83 1315.57 760.21C1336 744.37 1350.77 720.52 1352.89 694.76C1353.61 686.07 1351.26 663.85 1338.53 664.11C1327.9 664.33 1313.07 681.19 1309 689.9Z" />
				<path id="&lt;Path&gt;" class="shp6" d="M1299.01 770.95C1213.77 730 1163.35 710.16 1147.73 711.45C1132.12 712.74 1070.62 745.48 963.24 809.68L997.43 837.59C1069.41 812.31 1117.7 796.28 1142.31 789.5C1173.22 780.99 1299.01 851.83 1326.99 854.87C1345.65 856.9 1370.82 850.98 1402.5 837.13L1299.01 770.95Z" />
				<g id="&lt;Group&gt;">
					<g id="&lt;Group&gt;">
						<path id="&lt;Path&gt;" class="shp7" d="M1216.95 729.39L1202.79 725.7C1199.16 724.75 1196.3 728.77 1198.35 731.92C1201.74 737.17 1206.66 741.6 1211.58 745.59C1231.47 761.72 1254.13 774.76 1278.75 781.81C1283.23 783.09 1281.09 757.96 1280.52 755.92C1278.76 749.68 1275.74 740.35 1269.31 737.4C1263.57 734.76 1254.91 736.51 1248.79 735.91C1237.99 734.85 1227.42 732.11 1216.95 729.39Z" />
						<g id="&lt;Group&gt;" style="opacity: 0.541">
							<path id="&lt;Path&gt;" class="shp5" d="M1236.89 747.76C1245.08 744.49 1252.99 740.51 1260.51 735.89C1256.44 735.84 1252.22 736.24 1248.79 735.91C1247.15 735.75 1245.53 735.54 1243.9 735.31C1240.11 738.6 1236.79 742.82 1236.89 747.76Z" />
							<path id="&lt;Path&gt;" class="shp5" d="M1280.52 755.92C1278.76 749.68 1275.74 740.35 1269.31 737.4C1268.16 736.87 1266.88 736.52 1265.53 736.29C1261.79 742.94 1257.46 749.28 1251.15 753.41C1249.17 754.7 1246.72 756.28 1246.91 758.64C1247.07 760.53 1248.89 761.77 1249.98 763.34C1251.52 765.57 1251.46 768.24 1250.76 770.92C1259.76 775.35 1269.1 779.05 1278.75 781.81C1283.23 783.09 1281.09 757.96 1280.52 755.92Z" />
						</g>
					</g>
					<g id="&lt;Group&gt;">
						<path id="&lt;Path&gt;" class="shp7" d="M1424.67 648.2C1428.63 669.15 1425.36 690.74 1421.36 711.68C1417.35 732.62 1412.59 753.71 1413.6 775C1413.98 783.02 1415.18 791.02 1414.77 799.04C1414.35 807.03 1412.32 814.87 1409.47 822.34C1404.57 835.14 1396.61 847.54 1384.39 853.74C1379.52 856.2 1374.18 857.59 1368.84 858.67C1328.67 866.8 1285.37 858.04 1251.52 834.95C1241.68 828.24 1232.15 820.19 1221.86 814.32C1212.68 809.08 1212.49 796 1221.57 790.58C1236.76 781.52 1253.1 774.36 1270.07 769.38C1277.85 767.1 1285.93 765.2 1292.67 760.68C1307.62 750.66 1311.97 730.93 1314.54 713.12C1317.11 695.3 1320.01 675.7 1333.63 663.92C1339.92 658.48 1377.32 607.4 1384.39 603.01C1391.97 598.3 1396.94 602.38 1403.14 607.94C1414.66 618.29 1421.81 633.13 1424.67 648.2Z" />
						<path id="&lt;Path&gt;" class="shp5" d="M1379.15 827.52C1376.51 831.41 1373.98 836.06 1369.45 837.34C1363.4 839.06 1356.96 833.78 1350.94 835.6C1347.41 836.66 1344.99 839.92 1341.71 841.6C1336.53 844.24 1330.09 842.59 1324.65 844.62C1318.45 846.93 1315.43 852.91 1313.96 859.63C1332.13 862.56 1350.8 862.32 1368.84 858.67C1374.18 857.59 1379.52 856.2 1384.39 853.74C1396.61 847.54 1404.57 835.14 1409.47 822.34C1411.42 817.24 1412.96 811.97 1413.89 806.6C1412.11 806.91 1410.34 807.23 1408.65 807.59C1396.77 810.18 1385.99 817.47 1379.15 827.52Z" />
					</g>
					<path id="&lt;Path&gt;" class="shp8" d="M1221.87 806.73C1242.03 791.87 1268.89 789.13 1290.05 775.73C1307.36 764.77 1320 746.69 1324.37 726.68C1326.08 718.83 1326.59 710.67 1329.43 703.16C1333.52 692.35 1342 683.92 1349.04 674.75C1357.18 664.13 1363.56 652.16 1367.84 639.48C1371.4 628.95 1373.8 617.42 1381.51 609.4" />
					<path id="&lt;Path&gt;" class="shp5" d="M1384.64 615.16C1377.89 619.56 1373.92 627.1 1370.75 634.51C1364.81 648.39 1360.66 663 1357.8 677.82C1356.27 685.82 1355.09 693.95 1352.25 701.59C1349.42 709.22 1344.71 716.48 1337.68 720.61C1329.15 725.63 1318.47 725.36 1308.79 723.26C1306.55 722.78 1304.29 722.2 1302.01 722.39C1294.06 723.02 1289.59 733.12 1292.22 740.65C1294.85 748.18 1302.18 753.07 1309.59 756C1322.69 761.19 1337.52 761.9 1351.06 757.98C1358.32 755.88 1365.34 752.39 1370.54 746.9C1375.54 741.62 1378.58 734.84 1381.53 728.19C1388.96 711.46 1396.38 694.73 1403.81 678C1408.19 668.14 1412.62 658.09 1414.02 647.39C1416.1 631.33 1405.87 601.31 1384.64 615.16Z" />
				</g>
				<path id="&lt;Path&gt;" class="shp9" d="M1269.66 721.67C1266.66 719.97 1262.83 715.87 1258.17 709.37C1251.18 699.62 1244.48 696.58 1239.67 691.22C1234.86 685.85 1227.84 678.09 1229.13 685.4C1230.42 692.71 1239.14 700.64 1232.92 699.91C1226.69 699.19 1206.55 679.56 1202.8 680.42C1197.95 681.53 1218.04 706.41 1232.45 722.58C1246.87 738.75 1247.07 738.1 1262.48 745.21C1277.9 752.32 1308.61 732.37 1269.66 721.67Z" />
				<path id="&lt;Path&gt;" class="shp6" d="M1284.1 530.14C1283.53 534.1 1284.1 538.32 1282.46 541.97C1280.14 547.15 1273.7 550.47 1273.57 556.15C1273.42 562.3 1280.69 565.88 1282.93 571.61C1286.08 579.71 1278.26 588.28 1279.09 596.94C1279.47 600.92 1281.66 604.48 1283.8 607.87C1284.2 608.52 1284.7 609.23 1285.46 609.35C1286.25 609.47 1286.96 608.89 1287.54 608.34C1291.32 604.76 1294.95 600.57 1299.95 599.1C1304.07 597.9 1308.47 598.75 1312.76 598.92C1317.05 599.09 1321.87 598.3 1324.46 594.87C1326.52 592.12 1326.61 588.41 1326.52 584.98C1326.41 580.85 1326.16 576.72 1325.79 572.61C1325.37 567.91 1324.75 563.16 1322.98 558.78C1320.96 553.76 1317.52 549.47 1314.12 545.26C1309.78 539.87 1305.43 534.48 1301.09 529.09C1295.76 522.47 1285.8 518.16 1284.1 530.14Z" />
				<g id="&lt;Group&gt;">
					<path id="&lt;Path&gt;" class="shp9" d="M1318.16 582.83C1327.87 591.53 1332.21 600.43 1331.19 609.52C1329.68 622.96 1341.98 618.88 1368.09 597.27L1338.2 560.85L1318.16 582.83Z" />
					<path id="&lt;Path&gt;" class="shp10" d="M1327.25 594.04C1334.21 592.94 1339.47 589.98 1343.02 585.16C1343.19 590.9 1339.05 596.6 1330.62 602.26L1327.25 594.04Z" />
					<path id="&lt;Path&gt;" class="shp9" d="M1316.43 517.73C1301.13 522.42 1293.17 529.85 1292.56 540.04C1291.65 555.32 1306.37 598.16 1323.47 595.72C1340.58 593.27 1347.65 580.07 1354.04 570.36C1380.78 529.68 1335.55 506.08 1316.43 517.73Z" />
				</g>
				<g id="&lt;Group&gt;">
					<path id="&lt;Path&gt;" class="shp11" d="M1286.64 698.13C1287.25 699.85 1288.16 701.84 1289.96 702.16C1291.37 702.41 1292.71 701.49 1293.72 700.48C1297.38 696.87 1299.25 691.64 1303.29 688.46C1305.49 686.72 1308.17 685.73 1310.76 684.63C1323.93 679.01 1335.53 669.76 1343.94 658.17C1346.32 654.89 1348.47 651.4 1351.4 648.6C1354.17 645.95 1357.54 644.02 1360.65 641.78C1369.6 635.34 1376.57 626.2 1380.41 615.87C1381.57 612.74 1382.46 609.35 1381.77 606.08C1380.72 601.2 1376.17 597.59 1371.28 596.52C1366.4 595.46 1361.28 596.55 1356.61 598.34C1348.43 601.48 1341 606.79 1332.37 608.29C1322.91 609.95 1312.56 606.93 1303.95 611.17C1291.97 617.06 1283.56 638.22 1279.74 650.45C1274.79 666.34 1281.38 683.24 1286.64 698.13Z" />
					<path id="&lt;Path&gt;" class="shp12" d="M1332.39 606.66C1336.85 604.86 1340.56 601.65 1344.49 598.88C1353.35 592.65 1363.68 588.54 1374.4 586.99C1380.79 586.06 1389.05 587.19 1390.94 593.37C1391.98 596.78 1390.51 600.47 1388.51 603.43C1384.29 609.65 1377.81 613.99 1373.05 619.8C1369.58 624.04 1367.09 628.97 1364.09 633.55C1355.21 647.12 1341.63 657.54 1326.23 662.61C1317.44 665.5 1307.73 666.65 1298.99 663.63C1290.25 660.6 1282.82 652.71 1282.35 643.47C1282.03 637.24 1284.74 631.3 1287.57 625.75C1290.55 619.91 1293.86 614.02 1298.92 609.85C1310.67 600.19 1320.53 611.43 1332.39 606.66Z" />
				</g>
				<g id="&lt;Group&gt;">
					<path id="&lt;Path&gt;" class="shp4" d="M1407.08 763.71C1399.95 771.59 1391.97 779.07 1382.19 783.26C1370.76 788.16 1357.92 788.16 1345.48 787.79C1310.22 786.76 1273.24 782.76 1244.29 762.61C1249.27 748.13 1255.94 734.25 1264.16 721.35C1264.91 720.15 1265.77 718.91 1267.07 718.38C1268.59 717.78 1270.28 718.3 1271.82 718.83C1277.3 720.65 1282.83 722.29 1288.41 723.79C1296.61 726 1304.9 727.83 1313.28 729.33C1319.67 730.44 1326.11 731.35 1332.58 732.07C1337.29 732.58 1342.22 732.96 1346.63 731.25C1355.55 727.81 1358.99 717.85 1360.85 708.11C1361.21 706.25 1361.51 704.42 1361.76 702.61C1362.05 700.67 1362.35 698.72 1362.66 696.79C1365.07 681.3 1368.11 665.92 1371.69 650.68C1374.49 638.82 1378 626.41 1386.79 617.97C1400.73 604.57 1410.4 606.57 1424.01 630.39C1435.37 650.27 1426.02 742.77 1407.08 763.71Z" />
					<path id="&lt;Path&gt;" class="shp13" d="M1371.05 727.05C1365.98 732.89 1359.22 737.13 1354.39 743.18C1351.27 747.11 1348.79 751.92 1344.27 754.09C1338.49 756.86 1331.71 754.29 1325.86 751.68C1312.57 745.73 1298.87 739.09 1290.1 727.46C1289.28 726.36 1288.47 725.13 1288.41 723.79C1296.61 726 1304.9 727.83 1313.28 729.33C1319.67 730.44 1326.11 731.35 1332.58 732.07C1337.29 732.58 1342.22 732.96 1346.63 731.25C1355.55 727.81 1358.99 717.85 1360.85 708.11C1361.21 706.25 1361.51 704.42 1361.76 702.61C1362.05 700.67 1362.35 698.72 1362.66 696.79C1375.58 698.75 1382.04 714.42 1371.05 727.05Z" />
				</g>
				<path id="&lt;Path&gt;" class="shp11" d="M916.02 807.47C909.93 804.35 905.83 797.82 899.31 795.76C897.91 795.31 896.35 795.08 894.99 795.65C892.12 796.84 891.65 800.68 891.89 803.78C893.62 826.21 910.34 846.72 931.96 852.91C936.63 854.25 943.37 851.09 945.42 855.49C946.54 857.9 935.67 869.86 937.24 872C940.35 876.22 956.42 869.39 960.96 866.77C965.97 863.89 970.97 861.02 975.97 858.14C978.41 856.74 995.17 843.9 996.74 841.57C998.75 838.59 998.86 834.72 998.31 831.18C997.06 823.01 992.8 815.65 988.63 808.52C983.58 799.89 978.31 794.67 967.07 799.88C956.13 804.95 938.97 819.21 916.02 807.47Z" />
				<path id="&lt;Path&gt;" class="shp11" d="M882.71 805.18C874.87 797.27 869.69 786.96 866.99 776.16C866.24 773.18 865.26 769.67 862.36 768.65C860.13 767.86 857.58 769.03 856.08 770.86C854.57 772.69 853.9 775.04 853.31 777.33C850.06 789.93 848.39 802.92 848.34 815.93C848.32 820.26 848.5 824.69 850.11 828.71C853.96 838.29 864.99 843.43 869.07 852.92C869.85 854.74 870.36 856.75 870.04 858.7C869.47 862.25 857.84 865.51 858.49 869.04C859.25 873.22 872.97 874.35 877.21 874.57C886.05 875.02 894.93 874.55 903.67 873.17C908.01 872.48 912.7 871.34 915.34 867.82C917.62 864.79 917.8 860.72 917.89 856.92C918.09 848.44 921.18 824.91 912.85 819.58C909.29 817.31 902.96 817.65 898.92 816.02C892.85 813.58 887.31 809.82 882.71 805.18Z" />
				<g id="&lt;Group&gt;">
					<path id="&lt;Path&gt;" class="shp14" d="M1167.86 637.63L1173.52 633.07L1191.66 655.02L1236.32 642.46L1236.64 650.32L1187.29 662.1L1167.86 637.63Z" />
					<path id="&lt;Path&gt;" class="shp15" d="M1193.74 659.64L1236.64 650.32L1299.22 707.15L1255.37 718.14L1193.74 659.64Z" />
					<path id="&lt;Path&gt;" class="shp16" d="M1167.27 637.88L1189.53 664.33" />
					<path id="&lt;Path&gt;" class="shp17" d="M1193.74 659.64C1190.7 662.39 1187.25 662.77 1183.38 660.78L1249.98 721.2L1255.37 718.14L1193.74 659.64Z" />
					<path id="&lt;Path&gt;" class="shp18" d="M1236.32 642.46L1299.88 699.83L1299.22 707.15L1236.64 650.32L1236.32 642.46Z" />
				</g>
				<g id="&lt;Group&gt;">
					<path id="&lt;Path&gt;" class="shp6" d="M1305.96 526.47C1311.22 527.49 1314.64 529.18 1316.66 534.15C1318.42 538.46 1318.59 543.6 1321.76 547.01C1327.5 553.17 1339.62 550.09 1344.22 557.14C1346.66 560.88 1345.69 565.89 1343.97 570.02C1342.25 574.15 1339.84 578.15 1339.6 582.62C1339.27 588.63 1342.95 594.13 1347.06 598.53C1347.89 599.42 1349.09 600.36 1350.2 599.87C1350.83 599.59 1351.18 598.93 1351.54 598.34C1355.27 592.15 1363.2 589.7 1370.42 590C1375.97 590.24 1382.54 591.42 1386.21 587.25C1388.97 584.13 1388.67 579.33 1390.73 575.72C1394.4 569.3 1403.77 568.91 1409 563.67C1409.94 562.72 1410.77 561.49 1410.63 560.17C1410.32 557.24 1406.32 556.88 1403.41 556.45C1396.75 555.48 1391.21 549.43 1390.81 542.72C1390.64 539.78 1391.34 536.77 1390.57 533.93C1388.95 527.89 1381.82 525.44 1377.61 520.8C1373.77 516.57 1335.99 466.64 1297.74 508.33C1294.79 511.55 1290 519.59 1290.76 524.26C1291.72 530.12 1300.44 525.4 1305.96 526.47Z" />
					<path id="&lt;Path&gt;" class="shp9" d="M1328.76 546.47C1328.82 537.2 1332.85 531.72 1340.85 530.05C1352.84 527.53 1356.83 548.08 1344.5 563.08C1336.28 573.08 1331.03 567.54 1328.76 546.47Z" />
				</g>
			</g>
		</g>
		<g id="&lt;Group&gt;">
			<path id="&lt;Path&gt;" class="shp1" d="M382 877C382 896.33 319.32 912 242 912C164.68 912 102 896.33 102 877C102 857.67 164.68 842 242 842C319.32 842 382 857.67 382 877Z" />
			<g id="&lt;Group&gt;">
				<path id="&lt;Path&gt;" class="shp19" d="M325.95 608.69C320.93 664.53 331.76 769.89 320.79 829.77C311.63 834 300.4 834.95 287.12 832.62C267.18 829.11 259.38 654.05 256.82 625.26C254.26 596.45 244.04 536.01 240.8 521.81C238.36 511.08 241.98 490.76 238.96 481.48C237.4 476.68 230.88 475.65 228.11 479.88C223.35 487.19 226.78 505.92 226.03 551.7C224.93 617.74 214.38 651.64 206.35 684.8C198.31 717.95 180.37 797.65 173.46 816.07C159.5 824.7 145.72 824.93 132.13 816.76C137.87 744.06 142.35 693.98 145.58 666.52C150.41 625.32 157.41 586.66 157.3 544.22C157.27 530.54 156.26 515.09 155 499.49C152.82 472.92 149.92 445.95 149.89 426.76C149.87 422.26 150.03 418.2 150.38 414.66C152.19 396.32 204.58 399.66 307.57 424.67C308.04 435.52 330.97 552.86 325.95 608.69Z" />
				<path id="&lt;Path&gt;" class="shp20" d="M280.27 482.48C251.18 466.18 198.49 438.35 169.96 447.62C163.79 449.62 157.3 450.42 150.9 450.45C149.92 436.23 149.48 423.71 150.37 414.67C152.18 396.33 204.67 400.28 307.84 426.54C307.99 430.11 314.56 470.05 317.1 486.36C310.14 489.87 300.46 493.8 280.27 482.48Z" />
				<path id="&lt;Path&gt;" class="shp20" d="M291.16 606.67C295.11 578.26 313.86 572.6 326.46 571.6C327.02 584.66 326.97 597.34 325.95 608.7C324.44 625.5 324.37 645.42 324.7 666.69C311.51 658.63 286.79 638.1 291.16 606.67Z" />
				<path id="&lt;Path&gt;" class="shp20" d="M178.47 618.01C181.42 584.97 211.15 574.71 225.39 571.28C223.28 614.32 216.9 642.36 210.74 667.14C201.56 664.32 175.25 654.17 178.47 618.01Z" />
				<path id="&lt;Path&gt;" class="shp21" d="M328.36 780.02C331.16 774.9 329.17 773.86 322.4 776.89C312.25 781.44 272.59 782.92 270.75 785.11C268.92 787.3 265.29 787.62 268.54 792.21C271.79 796.79 272.73 801.03 274.59 811.5C276.44 821.96 269.98 836.74 272.2 845.47C274.42 854.21 264.58 866.85 272.29 871.45C280 876.05 289.45 877.24 295.85 880.74C302.24 884.23 329.07 889.17 348.52 888.67C367.96 888.18 377.27 883.29 366.24 873.3C355.21 863.32 350.65 857.63 340.15 853.68C329.65 849.74 327.55 838.76 327.57 828.71C327.59 818.66 326.02 820.83 327.54 810.54C328.56 803.69 328.84 793.51 328.36 780.02Z" />
				<path id="&lt;Path&gt;" class="shp21" d="M131.75 765.36C129.38 760.81 132.66 760.17 141.59 763.42C154.98 768.31 190.96 765.67 189.24 771.18C187.53 776.68 188.3 788.99 184.75 793.57C181.19 798.14 185.44 801.59 182.72 810.33C179.99 819.07 177.7 833.27 181.81 840.59C185.92 847.9 199.24 871.23 201.51 883.3C203.79 895.37 188.28 902.97 167.81 886.64C147.33 870.32 147.45 865.38 140.44 858.23C133.44 851.07 122.98 848.17 123.36 834.44C123.73 820.71 123.28 814.18 125.48 805.98C127.68 797.79 131.84 791.28 130.3 783.69C129.27 778.64 129.76 772.53 131.75 765.36Z" />
				<path id="&lt;Path&gt;" class="shp20" d="M192.31 458.14C186.33 468.13 179.34 477.5 171.47 486.06C166.65 491.32 161.3 496.37 155 499.49C152.82 472.92 149.92 445.95 149.89 426.76C149.91 426.72 149.94 426.69 149.98 426.66C150.97 425.68 152.49 425.51 153.88 425.43C163.18 424.82 172.58 425.64 181.65 427.85C187.29 429.23 193.32 431.54 196.1 436.66C199.74 443.37 196.24 451.61 192.31 458.14Z" />
			</g>
			<path id="&lt;Path&gt;" class="shp22" d="M333.82 341.25C329.96 343.75 325.24 344.52 320.63 344.19C319.48 344.12 318.35 343.97 317.24 343.75C311.61 342.7 306.36 340.29 301.1 338.02C294.78 335.27 288.01 332.36 284.32 326.56C282.36 323.5 281.45 319.91 280.68 316.35C278.3 305.55 276.75 294.59 276.05 283.55C275.73 278.48 275.64 273.12 277.97 268.61C283.12 258.6 297.14 258.23 304.57 265.98C311.16 272.85 309.96 288.72 311.09 297.5C311.24 298.68 311.39 299.88 311.73 301.02C311.98 301.93 312.35 302.79 312.89 303.55C313.82 304.86 315.18 305.79 316.51 306.68C320.96 309.65 325.39 312.63 329.84 315.6C334.07 318.43 338.6 321.64 340.05 326.51C341.69 332.01 338.64 338.15 333.82 341.25Z" />
			<path id="&lt;Path&gt;" class="shp23" d="M333.82 341.25C329.96 343.75 325.24 344.52 320.63 344.19C318.4 333.88 314.91 323.97 312.42 313.71C311.58 310.22 310.92 306.63 311.33 303.08C311.41 302.39 311.54 301.7 311.73 301.02C311.98 301.93 312.35 302.79 312.89 303.55C313.82 304.86 315.18 305.79 316.51 306.68C320.96 309.65 325.39 312.63 329.84 315.6C334.07 318.43 338.6 321.64 340.05 326.51C341.69 332.01 338.64 338.15 333.82 341.25Z" />
			<path id="&lt;Path&gt;" class="shp24" d="M291.09 260.66C292.02 289.05 298.73 346.37 311.23 432.62C275.86 462.41 221.45 468.71 148 451.51L147.26 313.02L166.75 180.62C176.52 175.48 205.63 175.17 254.08 179.67C274.45 179.22 288.05 183.22 294.89 191.69C304.88 204.06 310.6 232.17 312.03 276.02C305.52 282.53 298.07 284.4 289.69 281.6" />
			<path id="&lt;Path&gt;" class="shp25" d="M298.96 240.81L299.77 260.42C299.87 262.78 299.22 265.1 297.91 267.06L296.96 268.49C296 269.92 295.52 271.62 295.59 273.35C295.71 276.34 294.79 279.28 293 281.68L292.28 282.63" />
			<path id="&lt;Path&gt;" class="shp22" d="M135.53 347.89C137.63 352.91 140.18 358.1 144.78 361.02C149.12 363.77 154.75 364.01 159.68 362.54C164.62 361.06 168.96 358.05 172.84 354.66C194.42 335.85 202.86 306.46 218.41 282.42C224.61 272.82 231.98 264.05 238.72 254.83C242.48 249.69 246.15 244.14 246.92 237.83C247.7 231.51 244.66 224.28 238.62 222.3C236.24 221.52 233.03 221.05 232.58 218.59C232.42 217.69 232.73 216.77 233.19 215.97C234.66 213.39 237.44 211.89 239.6 209.85C241.77 207.81 243.36 204.41 241.72 201.93C240.48 200.06 237.84 199.58 235.69 200.22C233.55 200.87 231.8 202.4 230.16 203.93C220.37 213.02 211.39 224.19 209.74 237.45C209.2 241.8 209.46 246.32 207.98 250.45C206.71 254 204.25 256.96 201.84 259.85C190.02 274.05 178.11 288.32 164.08 300.35C166.01 290.57 166.58 280.52 165.77 270.58C165.29 264.65 164.14 258.39 160.12 254C154.32 247.69 143.77 247.43 136.52 252.01C122.24 261.03 122.01 280.65 122.68 295.64C123.48 313.35 128.75 331.62 135.53 347.89Z" />
			<path id="&lt;Path&gt;" class="shp24" d="M194.07 177.06C151.61 175.53 128.81 190.67 125.65 222.5C122.85 250.72 115.06 294.3 118.18 301.8C141 298.26 159.35 294.31 173.25 289.94C173.7 272.96 172.47 261.12 169.57 254.43" />
			<path id="&lt;Path&gt;" class="shp25" d="M154.62 209.77C162.02 220.45 169.71 231.99 169.86 244.98C169.9 247.58 169.62 250.19 169.93 252.78C170.42 256.84 172.34 260.57 173.49 264.49C175.53 271.51 175.06 278.98 174.57 286.27C174.5 287.41 174.4 288.61 173.75 289.54C172.95 290.69 171.51 291.16 170.17 291.56" />
			<g id="&lt;Group&gt;">
				<path id="&lt;Path&gt;" class="shp22" d="M288.66 101.18C288.9 103.24 288.65 140.1 280.05 152.92C271.46 165.73 264.23 169.34 248.81 165.22L247.44 186.94C241.35 198.4 231.09 201.09 216.65 195.03C207.41 191.15 201.78 185.08 199.76 176.81L226.4 91.71L288.66 101.18Z" />
				<path id="&lt;Path&gt;" class="shp21" d="M206.09 147.95C206.42 150.52 220.9 148.56 228.25 142.75C235.6 136.95 237.46 138.03 237.2 133.95C236.94 129.86 233.29 132.01 231 125.34C228.71 118.67 229.52 108.83 238.14 110.21C246.75 111.6 246.21 118.16 250.21 115.32C254.22 112.47 251.56 102.59 255.31 101.29C259.06 99.99 261.55 93.41 276.19 101.91C290.82 110.4 302.94 119.62 305.53 108.26C308.12 96.91 296.16 96.56 304.62 92.87C313.08 89.18 305.16 78.83 289.37 79.14C273.59 79.45 256.38 54.26 229.39 68.22C202.4 82.18 199.19 93.92 206.09 147.95Z" />
				<path id="&lt;Path&gt;" class="shp23" d="M248.81 165.22C245.69 164.78 238.45 163.62 230.87 157.61C223.3 151.61 232.62 166.96 238.29 169.86C242.06 171.79 245.28 173.98 247.95 176.43L248.81 165.22Z" />
				<path id="&lt;Path&gt;" class="shp22" d="M250.78 118.81C247.33 110.2 241.59 106.57 233.53 107.93C221.45 109.97 225.24 130.56 242.19 140.02C253.5 146.32 256.36 139.26 250.78 118.81Z" />
			</g>
			<g id="&lt;Group&gt;">
				<path id="&lt;Path&gt;" class="shp25" d="M202.68 165.51C199.65 166.09 194.3 172.85 193.33 178.46L192.01 186.01C191.65 188.09 192.33 190.22 193.82 191.72L195.12 193.02C195.5 193.4 195.84 193.81 196.13 194.26L208.64 204.09L215.85 201.69C216.74 201.39 217.67 201.22 218.61 201.19L227.54 200.9C228.1 200.89 228.19 200.1 227.64 199.95C212.7 196 203.9 188.79 201.26 178.33C202.84 169.66 203.31 165.39 202.68 165.51Z" />
				<path id="&lt;Path&gt;" class="shp25" d="M233.64 200.17C233.27 200.67 233.82 201.32 234.37 201.05C240.44 198.08 245.94 193.95 250.46 188.93C251.99 187.23 253.44 185.38 253.65 182.99C253.72 182.21 253.49 181.45 253.31 180.69C252.34 176.72 252.02 173.25 248.66 170.95C248.2 174.33 249.21 183.9 241.62 189.72C238.16 192.38 236.25 196.68 233.64 200.17Z" />
			</g>
			<g id="&lt;Group&gt;">
				<path id="&lt;Path&gt;" class="shp26" d="M415.47 293L406.99 243.23L312.16 282.28L313.03 303.19L415.47 293Z" />
				<path id="&lt;Path&gt;" class="shp14" d="M412.54 291.04L403.55 242.33L314.18 278.97L316.44 301.67L412.54 291.04Z" />
				<path id="&lt;Path&gt;" class="shp6" d="M398.75 301.24L415.47 293C394.06 278.56 382.62 271.74 381.17 272.54C379.72 273.35 348.24 287.48 286.75 314.94L324.68 335.52L398.75 301.24Z" />
			</g>
			<path id="&lt;Path&gt;" class="shp22" d="M358.43 321.31C359.98 321.42 361.59 321.56 362.93 322.35C364.26 323.14 365.23 324.78 364.75 326.26C364.08 328.3 361.43 328.68 359.63 329.86C357.54 331.23 356.6 333.75 355.67 336.08C353.38 341.8 350.01 347.64 344.36 350.09C341.53 351.33 338.37 351.58 335.28 351.5C330.49 351.36 325.11 350 322.79 345.81C322.13 344.62 321.78 343.14 322.35 341.91C323.06 340.36 324.94 339.72 326.63 339.68C328.33 339.64 330.03 340.04 331.72 339.84C332.15 339.79 332.59 339.69 332.92 339.4C333.68 338.73 333.38 337.49 333.58 336.49C334.13 333.85 338.08 333.35 339.12 330.86C339.75 329.36 339.09 327.66 339.1 326.03C339.16 317.36 353.44 320.97 358.43 321.31Z" />
		</g>
		<g id="&lt;Group&gt;">
			<g id="&lt;Group&gt;">
				<path id="&lt;Path&gt;" class="shp19" d="M668.53 652.01C670.73 643.65 668.97 636.84 663.25 631.56C657.53 626.28 610.65 616.21 522.61 601.36L494.99 650.03L668.53 652.01Z" />
				<g id="&lt;Group&gt;">
					<path id="&lt;Path&gt;" class="shp27" d="M665.16 652.01L686.04 885.54" />
					<path id="&lt;Path&gt;" class="shp27" d="M512.36 888L526.62 645.03L515.81 639.1L492.33 858.71" />
					<path id="&lt;Path&gt;" class="shp27" d="M671.5 715.51C678.2 735.02 677.17 745.92 668.43 748.22C655.31 751.68 533.77 757.2 515.81 745.46C503.84 737.63 501.07 723.79 507.49 703.93" />
					<path id="&lt;Path&gt;" class="shp27" d="M667.05 686.74L524.1 683.98L511.35 671.27" />
				</g>
			</g>
			<g id="&lt;Group&gt;">
				<g id="&lt;Group&gt;">
					<g id="&lt;Group&gt;">
						<path id="&lt;Path&gt;" class="shp22" d="M577.19 378.12C578.78 384.21 579.18 388.98 578.38 392.42C577.59 395.86 570.51 398.34 557.15 399.83L605.02 465.71L638.36 405.13L629.2 384.98L622.47 384.08L619.29 362.24L577.19 378.12Z" />
						<path id="&lt;Path&gt;" class="shp28" d="M592.6 460.31C596.72 461.63 601.23 460.6 605.29 459.12C619.38 453.95 630.98 442.71 637.14 429.05C638.84 425.3 640.14 421.38 640.95 417.34C641.2 416.09 641.4 414.83 641.57 413.57C641.99 410.32 642.09 407 641.75 403.75L641.75 403.73C641.64 402.61 641.47 401.5 641.23 400.4C640.68 397.71 639.78 395.12 638.44 392.71C635.58 387.57 629.31 382.72 623.35 381.51C620.66 382.22 618.22 383.5 616.87 385.28C615.31 387.34 614.8 390 614.53 392.56C613.99 397.88 614.36 403.26 615.61 408.45C616.23 411.06 619.84 411.33 620.83 408.83C621.4 407.35 625.71 409.93 625.22 412.54C624.25 417.76 621.23 422.35 618.15 426.68C614.4 431.97 610.36 437.22 606.79 442.69C602.39 449.44 593.94 451.06 587.61 447.64C586.94 448.45 586.44 449.37 586.15 450.45C585.07 454.64 588.47 459 592.6 460.31Z" />
					</g>
					<path id="&lt;Path&gt;" class="shp28" d="M573.99 374.97L611.96 373.12C617 379.95 616.14 386.57 609.38 392.99C602.62 399.41 590.82 393.4 573.99 374.97Z" />
					<path id="&lt;Path&gt;" class="shp22" d="M596.31 305.49C594.82 305.75 564.12 306.11 561.73 327.02C559.34 347.94 561.67 389.66 582.04 387.97C602.42 386.28 610.76 379.78 616.77 372.2C622.78 364.61 635.01 353.17 634.73 341.31C634.44 329.45 622.53 300.95 596.31 305.49Z" />
					<path id="&lt;Path&gt;" class="shp6" d="M594.74 323.65C596.5 325.21 599 325.51 601.25 326.19C606.75 327.85 611.32 332.32 613.1 337.78C614.38 334.3 619.21 332.96 622.4 334.85C625.6 336.74 626.86 341.07 625.76 344.61C624.65 348.15 621.55 350.85 618.06 352.1C616.47 352.68 614.61 353.12 613.76 354.58C612.81 356.22 613.6 358.28 614.4 360C615.93 363.25 617.45 366.51 618.97 369.77C619.17 370.19 619.38 370.63 619.77 370.88C620.57 371.41 621.61 370.9 622.48 370.5C625.24 369.22 628.5 369.06 631.37 370.06C632.99 370.63 634.6 371.56 636.29 371.29C638.33 370.97 639.71 368.98 640.28 367C640.85 365.01 640.88 362.89 641.52 360.93C643.04 356.3 647.6 353.45 650.46 349.49C655.99 341.84 654.23 330.58 648.3 323.24C646.11 320.53 643.35 318.07 642.38 314.73C640.92 309.72 643.7 303.53 640.37 299.52C636.84 295.28 629.48 297.24 625.2 293.77C622.64 291.71 621.5 287.93 618.42 286.8C613.51 284.99 609.26 291.32 604.05 291.85C598.73 292.4 593.88 286.71 588.73 288.17C585.51 289.08 583.48 292.54 580.23 293.34C577.39 294.04 574.41 292.5 571.52 292.97C567.66 293.6 565.29 297.48 563.73 301.07C559.58 310.59 557.35 320.94 557.21 331.32C557.18 332.89 557.64 334.96 559.21 335.06C559.9 335.11 560.54 334.7 561.05 334.23C563.35 332.1 563.82 328.72 564.51 325.66C565.21 322.61 566.64 319.22 569.64 318.32C570.91 317.94 572.28 318.07 573.56 317.74C577.82 316.65 580.36 311.04 585.16 312.9C590.06 314.79 591.22 320.54 594.74 323.65Z" />
					<path id="&lt;Path&gt;" class="shp22" d="M610.04 337.8C613.73 329.89 619.32 326.79 626.82 328.49C638.07 331.04 633.42 350.19 616.98 358.19C606.03 363.52 603.71 356.72 610.04 337.8Z" />
				</g>
				<g id="&lt;Group&gt;">
					<g id="&lt;Group&gt;">
						<path id="&lt;Path&gt;" class="shp22" d="M480.17 593.66C476.14 594.01 471.76 594.62 468.94 597.53C466.94 599.59 466.06 602.49 465.55 605.32C464.81 609.46 464.74 613.82 466.21 617.76C467.67 621.7 470.87 625.15 474.95 626.14C477.2 626.68 479.56 626.48 481.86 626.27C490.2 625.5 498.55 624.74 506.9 623.97C512.18 623.49 518.13 622.64 521.23 618.33C526.97 610.37 519.63 598.23 511.9 594.43C503.3 590.19 489.27 592.88 480.17 593.66Z" />
						<g id="&lt;Group&gt;">
							<path id="&lt;Path&gt;" class="shp21" d="M405.74 625.76C412.41 614.67 423.67 606.12 436.31 603.33C440.51 602.4 445.07 602.1 448.54 599.55C450.63 598.02 452.1 595.82 453.76 593.84C458.67 587.96 465.76 583.65 473.4 583.23C480.02 582.86 489.76 586.32 491.98 593.25C485.12 593.3 479.33 594.2 473.48 597.54C469.54 603.6 472.03 612.45 475.96 618.39C476.97 619.92 479.59 623.65 479.69 625.48C479.87 628.98 474.81 629.19 471.68 630.78C464.79 634.27 457.91 637.77 451.03 641.26C441.49 646.11 431.59 651.05 420.91 651.63C416.68 651.85 412.29 651.33 408.62 649.23C405.35 647.36 402.78 644.07 402.27 640.39C401.52 638.62 402.25 631.57 405.74 625.76Z" />
							<path id="&lt;Path&gt;" class="shp14" d="M405.74 625.76C412.41 614.67 423.67 606.12 436.31 603.33C440.51 602.4 445.07 602.1 448.54 599.55C450.63 598.02 452.1 595.82 453.76 593.84C458.67 587.96 465.76 583.65 473.4 583.23C478.1 582.96 484.37 584.65 488.41 588.13C483.37 591.66 477.38 593.87 471.24 594.31C467.24 594.6 462.94 594.25 459.51 596.32C456.84 597.92 455.16 600.73 452.88 602.85C444.22 610.87 428.36 607.99 421.3 617.46C420.49 618.56 419.82 619.82 419.71 621.18C419.44 624.35 422.06 626.91 424.15 629.31C428.99 634.89 431.72 642.17 432.06 649.54C428.43 650.65 424.72 651.42 420.91 651.63C416.68 651.85 412.29 651.33 408.62 649.23C405.35 647.36 402.78 644.07 402.27 640.39C401.52 638.62 402.25 631.57 405.74 625.76Z" />
							<g id="&lt;Group&gt;">
								<path id="&lt;Path&gt;" class="shp24" d="M450.86 627.48C450.64 628.42 451.22 629.35 452.15 629.58C453.09 629.8 454.03 629.22 454.25 628.28C454.47 627.34 453.89 626.4 452.96 626.18C452.02 625.96 451.08 626.54 450.86 627.48Z" />
								<path id="&lt;Path&gt;" class="shp24" d="M459.22 623.67C458.99 624.61 459.57 625.55 460.51 625.77C461.45 625.99 462.39 625.41 462.61 624.47C462.83 623.53 462.25 622.6 461.31 622.37C460.38 622.15 459.44 622.73 459.22 623.67Z" />
								<path id="&lt;Path&gt;" class="shp24" d="M468.12 617.74C467.19 617.52 466.25 618.1 466.03 619.04C465.8 619.98 466.38 620.92 467.32 621.14C468.26 621.36 469.2 620.78 469.42 619.84C469.64 618.9 469.06 617.96 468.12 617.74Z" />
							</g>
							<g id="&lt;Group&gt;">
								<path id="&lt;Path&gt;" class="shp24" d="M447.26 617.9C447.04 618.84 447.62 619.77 448.56 620C449.49 620.22 450.43 619.64 450.65 618.7C450.87 617.76 450.29 616.82 449.36 616.6C448.42 616.38 447.48 616.96 447.26 617.9Z" />
								<path id="&lt;Path&gt;" class="shp24" d="M455.62 614.09C455.39 615.03 455.98 615.97 456.91 616.19C457.85 616.41 458.79 615.83 459.01 614.89C459.23 613.96 458.65 613.02 457.71 612.79C456.78 612.57 455.84 613.15 455.62 614.09Z" />
								<path id="&lt;Path&gt;" class="shp24" d="M464.52 608.16C463.59 607.94 462.65 608.52 462.43 609.46C462.2 610.4 462.78 611.34 463.72 611.56C464.66 611.78 465.6 611.2 465.82 610.26C466.04 609.32 465.46 608.38 464.52 608.16Z" />
							</g>
						</g>
					</g>
					<g id="&lt;Group&gt;">
						<path id="&lt;Path&gt;" class="shp21" d="M607.55 787.71C607.64 790.4 607.59 793.18 606.54 795.66C604.82 799.75 600.73 802.3 596.69 804.16C592.66 806.02 588.32 807.54 585.1 810.6C582.27 813.29 580.56 816.95 578.09 819.98C575.66 822.95 572.54 825.27 569.3 827.31C556.18 835.57 524.63 837.41 521.12 829.31C516.11 817.79 526.76 813.97 534.76 806.13C542.75 798.3 552.47 792.42 560.57 784.7C562.04 783.3 563.49 781.79 564.25 779.91C565.99 775.66 563.85 770.9 561.68 766.85C561.1 765.76 560.5 764.64 560.38 763.41C560.14 761 561.8 758.81 563.68 757.29C570.62 751.7 581.05 752.25 588.88 756.51C596.72 760.76 602.42 768.03 607.4 775.42" />
						<path id="&lt;Path&gt;" class="shp14" d="M531.2 809.29C537.66 813.57 543.11 819.39 546.8 826.21C558.6 821.52 571 816.39 578.65 806.26C581.64 802.29 583.75 797.74 586.5 793.6C589.24 789.45 592.83 785.58 597.55 784.02C600.69 782.97 604.09 783.08 607.32 783.9C607.42 785.17 607.51 786.44 607.55 787.71C607.64 790.4 607.59 793.18 606.54 795.66C604.82 799.75 600.73 802.3 596.69 804.16C592.66 806.02 588.32 807.54 585.1 810.6C582.27 813.29 580.56 816.95 578.09 819.98C575.66 822.95 572.54 825.27 569.3 827.31C556.18 835.57 524.63 837.41 521.12 829.31C516.83 819.45 524.03 815.22 531.2 809.29Z" />
						<g id="&lt;Group&gt;">
							<path id="&lt;Path&gt;" class="shp24" d="M550.81 802.9C550.81 803.86 551.59 804.64 552.55 804.64C553.51 804.64 554.29 803.86 554.29 802.9C554.29 801.94 553.51 801.16 552.55 801.16C551.59 801.16 550.81 801.94 550.81 802.9Z" />
							<path id="&lt;Path&gt;" class="shp24" d="M559.01 797.98C559.01 798.94 559.79 799.72 560.76 799.72C561.72 799.72 562.5 798.94 562.5 797.98C562.5 797.01 561.72 796.23 560.76 796.23C559.79 796.23 559.01 797.01 559.01 797.98Z" />
							<path id="&lt;Path&gt;" class="shp24" d="M565.37 789.46C564.41 789.46 563.63 790.24 563.63 791.21C563.63 792.17 564.41 792.95 565.37 792.95C566.34 792.95 567.12 792.17 567.12 791.21C567.12 790.24 566.34 789.46 565.37 789.46Z" />
						</g>
					</g>
					<path id="&lt;Path&gt;" class="shp24" d="M482.91 630.93C473.65 643.24 472.95 659.98 481.13 673.04C484.53 678.45 487.71 683.34 489.29 685.3C513.99 715.78 545.96 742.79 556.85 780.48C557.29 781.98 557.73 783.54 558.84 784.62C559.86 785.6 561.29 786 562.68 786.32C579.22 790.01 597.57 784 608.73 771.22C600.32 738.81 579.31 712.27 554.71 689.52C549.65 684.84 544.38 680.2 540.79 674.32C537.21 668.43 535.49 660.94 538.1 654.56C540.3 649.15 544.97 645.62 550.25 642.82C553.32 641.17 556.6 639.79 559.73 638.45C573.47 632.47 586.48 624.83 598.38 615.7C602.35 612.66 606.48 608.95 607.05 603.99C607.67 598.6 603.65 593.55 598.72 591.29C593.8 589.04 588.18 589.02 582.78 589.24C568.87 589.83 555.02 591.83 541.51 595.22L548.9 592.81C544.66 594.04 540.39 595.28 536.13 596.63C528.65 598.72 521.3 601.21 514.11 604.12L522.61 601.36C513.08 605.1 504.04 609.78 496.18 616.31C494.16 617.98 492.24 619.81 490.44 621.78C487.83 624.63 485.29 627.77 482.91 630.93Z" />
					<path id="&lt;Path&gt;" class="shp25" d="M526.62 645.03C535.86 647.72 540.89 645.08 550.25 642.82C553.32 641.17 556.6 639.79 559.73 638.45C573.47 632.47 586.48 624.83 598.38 615.7C602.35 612.66 606.48 608.95 607.05 603.99C607.67 598.6 603.65 593.55 598.72 591.29C593.8 589.04 588.18 589.02 582.78 589.24C568.87 589.83 555.02 591.83 541.51 595.22L548.9 592.81C544.66 594.04 540.39 595.28 536.13 596.63C528.65 598.72 521.3 601.21 514.11 604.12L522.61 601.36C513.08 605.1 504.04 609.78 496.18 616.31C494.16 617.98 504.8 638.69 526.62 645.03Z" />
					<g id="&lt;Group&gt;">
						<path id="&lt;Path&gt;" class="shp22" d="M471.79 538.9C469.37 542.97 466.85 547.71 468.29 552.22C469.36 555.55 472.49 557.95 475.88 558.79C479.27 559.63 482.87 559.1 486.19 558C494.27 555.34 501.02 549.43 505.86 542.43C510.7 535.42 513.78 527.35 516.16 519.18C517.55 514.4 518.68 509.07 516.44 504.63C511.55 494.92 496.55 496.97 491.17 504.93C484.03 515.49 478.37 527.87 471.79 538.9Z" />
						<path id="&lt;Path&gt;" class="shp7" d="M485.41 514.28C489.46 518.65 506.84 523.6 514.16 525.44L514.18 525.44C516.14 525.93 517.39 526.18 517.42 526.14C518.54 525.07 519.71 523.3 520.93 521.14C526.77 510.67 533 491.16 532.31 498.06C531.51 506.11 529.49 562.44 539.6 566.72C539.93 566.87 540.3 566.95 540.67 566.97L638.04 573.89L660.65 549.83L662.81 547.54C662.4 537.66 662.15 525.67 663.78 517.69C663.95 516.83 664.1 515.93 664.24 514.97C664.29 514.49 664.36 514.01 664.39 513.52C664.44 513.03 664.49 512.52 664.52 512.02C664.57 511.46 664.61 510.89 664.62 510.3C664.68 509.61 664.69 508.92 664.71 508.22C664.79 505.39 664.73 502.44 664.59 499.53C664.56 498.72 664.51 497.9 664.46 497.09C664.3 494.63 664.12 492.22 663.88 490C663.85 489.65 663.82 489.31 663.78 488.97C663.75 488.64 663.72 488.32 663.68 488L663.68 487.98C663.65 487.64 663.61 487.31 663.56 486.97C663.53 486.63 663.5 486.31 663.46 485.99C663.36 485.03 663.24 484.13 663.13 483.28C663.11 483.03 663.08 482.81 663.04 482.58C662.96 481.89 662.87 481.25 662.79 480.66C662.74 480.32 662.71 480.02 662.66 479.73C662.47 478.38 662.34 477.54 662.3 477.36L670.1 498.2C672.72 497.1 675.8 495.94 679.32 494.71C688.97 491.35 703.09 487.32 705.99 491.38C707 487.66 707.79 483.89 708.39 480.08C710.7 465.73 710.23 450.91 707.01 436.72C706.9 435.95 706.74 435.17 706.51 434.43C706.46 434.25 706.39 434.08 706.34 433.91C705.78 431.77 705.21 429.65 704.54 427.54L697.1 419.35C697.15 419.92 697.22 420.49 697.27 421.06C687.74 412.97 673.35 408.4 661.83 404.2C657.39 402.58 653.36 401 650.23 399.31C649.49 398.91 648.73 398.52 648.01 398.15C641.51 394.82 635.48 392.6 630.92 391.15C631.16 394.92 631.9 398.69 632.22 402.43C632.47 405.07 632.49 407.68 632 410.29C631.02 415.51 628.01 420.1 624.93 424.43C621.18 429.72 617.13 434.97 613.57 440.44C609.17 447.19 600.72 448.81 594.39 445.39C592.17 444.21 590.2 442.38 588.77 439.92C585.79 434.82 583.05 429.58 580.65 424.18C577.11 416.1 574.41 407.52 573.15 398.79C572.63 395.25 568.99 393.08 565.64 394.35C548.44 400.87 525.53 410.05 519.31 414.95C509.01 423.08 488.27 505.82 484.77 511.68C484.28 512.51 484.55 513.37 485.41 514.28Z" />
						<path id="&lt;Path&gt;" class="shp4" d="M532.31 498.06C531.51 506.11 529.49 562.44 539.6 566.72C542.24 560.77 544.01 554.46 545.61 548.15C547.98 538.8 550.03 529.33 550.57 519.7C551.36 505.32 548.75 490.98 546.13 476.82C545.52 473.49 544.63 469.75 541.7 468.07C540.07 467.11 538.03 467 536.16 467.38C528.33 468.89 523.89 477.22 521.87 484.95C518.62 497.27 520.2 508.84 520.93 521.14C526.77 510.67 533 491.16 532.31 498.06Z" />
						<path id="&lt;Path&gt;" class="shp4" d="M643.06 424.36C649.86 442.68 651.41 462.46 652.61 481.95C653.72 500.1 653.9 518.33 655.16 536.46C655.65 543.38 657.91 547.96 660.65 549.83L662.81 547.54C662.4 537.66 662.15 525.67 663.78 517.69C666.56 504.04 662.49 478.54 662.3 477.36L670.1 498.2C672.72 497.1 675.8 495.94 679.32 494.71C679.54 493.32 679.76 491.9 679.99 490.51C680.92 484.73 681.85 478.81 680.6 473.1C678.8 464.75 672.67 458.13 668.61 450.62C663.01 440.24 661.41 428.22 657.4 417.11C653.4 406.01 645.67 394.9 634.1 392.55C633.6 403.64 639.2 413.94 643.06 424.36Z" />
						<path id="&lt;Path&gt;" class="shp22" d="M622.39 406.2C623.01 408.81 626.61 409.08 627.61 406.59C628.18 405.1 628.85 403.69 630.15 402.95C630.77 402.58 631.49 402.44 632.22 402.43C632.72 402.39 633.23 402.44 633.72 402.51C634.22 402.58 634.73 402.68 635.22 402.81C637.62 403.39 639.86 404.58 641.71 406.27C644.49 408.79 646.36 411.82 647.72 415.09C649.04 418.29 649.88 421.69 650.58 425.09C654.52 444.13 654.96 464.01 661.48 482.34C662.15 484.24 662.89 486.13 663.68 487.98L663.68 488C667.47 496.89 672.44 505.29 677.39 513.62C680.53 518.94 684.54 524.81 690.67 525.54C694.09 525.94 697.52 524.56 700.35 522.59C708.88 516.62 712.74 505.47 712.03 495.08C711.68 489.9 710.35 484.9 708.39 480.08C706.42 475.24 703.83 470.59 700.99 466.2C695.33 457.44 688.63 449.4 683.14 440.54C676.41 429.65 670.63 418.07 663.51 407.39C662.87 406.45 662.34 405.37 661.83 404.2C659.54 398.98 658.13 392.11 654.24 388.83C649.42 384.77 645.28 382.09 639.46 379.53C636.98 378.46 633.38 378.44 630.13 379.26C627.44 379.97 625 381.25 623.65 383.03C622.08 385.09 621.58 387.75 621.31 390.31C620.77 395.63 621.14 401.01 622.39 406.2Z" />
					</g>
					<g id="&lt;Group&gt;">
						<path id="&lt;Path&gt;" class="shp29" d="M730 550.26C730.12 560.77 724.97 570.71 718.35 578.87C711.73 587.02 703.6 593.81 696.35 601.42C688.06 610.1 680.82 619.93 671.17 627.06C652.35 640.97 625.07 642.24 605.04 630.14C600.1 627.16 595.47 623.31 592.86 618.17C586.48 605.66 594.31 589.9 605.77 581.8C617.24 573.71 631.48 570.9 644.74 566.32C663.96 559.67 681.47 549.07 698.26 537.77C705.38 532.98 711.93 524.37 720.09 529.7C726.5 533.89 729.91 542.9 730 550.26Z" />
						<path id="&lt;Path&gt;" class="shp24" d="M713.91 525.07C701.09 522.2 688.18 528.33 676.3 533.94C619.75 560.66 557.77 575.99 496.02 585.92C502.65 605.24 500.81 617.26 515.82 631.11C542.23 633.65 579.2 632.81 600.25 622.56C613.87 615.93 626.47 607.24 640.51 601.56C653.36 596.37 667.12 593.83 680.29 589.5C693.46 585.16 706.53 578.64 714.84 567.54C723.15 556.45 722.23 536.16 713.91 525.07Z" />
					</g>
				</g>
				<g id="&lt;Group&gt;">
					<path id="&lt;Path&gt;" class="shp18" d="M429.41 533.44L512.57 558.31L468.1 571.63L446.49 559.32L429.41 533.44Z" />
					<path id="&lt;Path&gt;" class="shp18" d="M425.89 524.65L503.56 549.77L460.47 565.3L425.89 524.65Z" />
					<path id="&lt;Path&gt;" class="shp14" d="M528.24 547.27L529.14 555.3C508.12 556.1 493.44 557.98 485.11 560.96C476.79 563.93 469.85 567.6 464.29 571.96L455.07 568.09L450.02 562.74C448.63 552.63 444.56 547.27 437.82 546.68C431.08 546.08 425.13 538.55 419.97 524.07L427.11 524.07C430.09 529.23 433.06 533.09 436.04 535.67C440.5 539.54 449.12 541.92 453.29 549.65C456.06 554.81 458.44 558.58 460.43 560.96L465.48 563.04C471.23 557.09 479.26 553.22 489.58 551.44C499.89 549.65 512.78 548.26 528.24 547.27Z" />
					<path id="&lt;Path&gt;" class="shp15" d="M416.41 522.59L411.94 523.18L454.18 571.07L459.24 570.47L416.41 522.59Z" />
				</g>
				<path id="&lt;Path&gt;" class="shp15" d="M530.15 548.4L464.29 571.96L498.2 586.24L595.17 566.61L530.15 548.4Z" />
				<path id="&lt;Path&gt;" class="shp22" d="M451.01 567.52C449.43 565.79 451.17 562.19 453.28 562.03C455.38 561.88 457.2 563.73 458.77 565.48C461.45 568.44 464.12 571.4 466.79 574.37C467.57 575.24 468.39 576.13 469.4 576.47C470.42 576.81 471.5 576.54 472.53 576.28C480.81 574.21 489.17 572.72 497.58 571.79C502.13 571.29 506.97 571.02 511 573.73C510.15 577.77 507.61 581 504.67 583C501.73 585 498.41 585.93 495.12 586.7C486.67 588.67 478.08 589.74 469.48 589.9C467.07 589.94 464.57 589.89 462.37 588.66C459.9 587.27 458.1 584.55 456.57 581.77L451.01 567.52Z" />
			</g>
			<path id="&lt;Path&gt;" class="shp1" d="M738 869.27C738 884.23 671.29 896.36 589 896.36C506.71 896.36 440 884.23 440 869.27C440 854.31 506.71 842.18 589 842.18C671.29 842.18 738 854.31 738 869.27Z" />
		</g>
		<g id="&lt;Group&gt;">
			<path id="&lt;Path&gt;" class="shp1" d="M1168 543.96C1168 566.07 1084.72 584 982 584C879.27 584 796 566.07 796 543.96C796 521.84 879.27 503.91 982 503.91C1084.72 503.91 1168 521.84 1168 543.96Z" />
			<path id="&lt;Path&gt;" class="shp15" d="M1017.53 224.07C1011.71 207.23 1006.79 188.3 1007.62 171.92C1007.62 171.92 1007.62 171.92 1007.62 171.92C1008.05 165.17 1008.11 159.23 1008.45 155.54C1010.26 136.02 996.03 128.36 990.91 127.88C985.79 127.39 981.24 123.77 964.21 124.36C947.92 124.93 936.74 136.54 933.65 152.62C931.16 165.6 932.73 173.34 935.14 184.56C935.27 187.87 935.41 201.04 930.01 210.27C923.79 220.9 915.3 222.77 914.94 248.14C914.71 265.05 948.9 267.95 1017.53 256.85C1021.41 246.23 1021.41 235.31 1017.53 224.07Z" />
			<g id="&lt;Group&gt;">
				<path id="&lt;Path&gt;" class="shp9" d="M918.85 537.71C917.74 539.05 917.19 540.77 916.8 542.47C915.61 547.66 915.72 553.14 917.12 558.28C917.29 558.89 917.5 559.54 917.99 559.94C918.48 560.35 919.16 560.42 919.8 560.47C926.4 560.97 933.08 560.31 939.46 558.55C940.02 558.39 940.6 558.21 940.98 557.78C941.41 557.27 941.47 556.55 941.5 555.88C941.71 551.64 941.92 547.39 942.12 543.15C942.18 542.05 942.23 540.94 941.94 539.88C939.95 532.43 922.91 532.8 918.85 537.71Z" />
				<g id="&lt;Group&gt;">
					<path id="&lt;Path&gt;" class="shp30" d="M908.61 564.17C903.63 567.75 895.73 571.4 889.92 569.46C888.7 569.06 887.5 568.36 886.93 567.21C886.52 566.38 886.48 565.42 886.47 564.49C886.35 556.2 887.59 547.88 890.13 539.98C891.63 535.31 894.23 530.21 899 529.1C903.71 528 910.43 529.12 914.55 531.65C921.89 536.16 940.28 533.06 941.16 533.52C943.24 534.61 943.82 545.9 942.95 548.08C940.6 554.03 933.27 556.41 927.47 557.14C920.07 558.08 914.8 559.71 908.61 564.17Z" />
					<path id="&lt;Path&gt;" class="shp7" d="M902.03 528.72C900.97 528.77 899.94 528.88 899 529.1C894.23 530.21 891.63 535.31 890.13 539.98C887.59 547.88 886.35 556.2 886.47 564.49C886.48 565.42 886.52 566.38 886.93 567.21C887.5 568.36 888.7 569.06 889.92 569.46C893.5 570.65 897.88 569.72 901.87 568C903.7 563.1 905.02 558.04 905.6 552.84C906.49 544.68 905.43 536.15 902.03 528.72Z" />
				</g>
			</g>
			<g id="&lt;Group&gt;">
				<path id="&lt;Path&gt;" class="shp24" d="M945.31 237.54C967.56 236.98 989.96 236.43 1011.97 239.76C1019.4 240.89 1026.99 242.55 1033.13 246.87C1044.62 254.96 1048.32 270.11 1050.39 284.01C1051.83 293.74 1052.89 303.52 1053.95 313.3C1054.48 318.15 1055 323.09 1053.93 327.84C1052.55 334 1048.64 339.26 1044.63 344.13C1032.11 359.35 1017.29 373.16 999.36 381.32C981.43 389.49 960.03 391.45 942.05 383.39C935.78 380.57 930.07 376.64 924.44 372.69C917.55 367.87 910.54 362.84 905.86 355.85C902.55 350.91 900.56 345.2 898.91 339.48C893.24 319.82 891.26 298.7 895.23 278.52C897.68 266.05 895.93 253.43 908.09 247.05C918.23 241.74 934.06 237.83 945.31 237.54Z" />
				<g id="&lt;Group&gt;">
					<path id="&lt;Path&gt;" class="shp9" d="M957.18 216.44L953.81 247.96C966.09 253.94 977.89 253.94 989.2 247.96L985.83 209.72L957.18 216.44Z" />
					<path id="&lt;Path&gt;" class="shp31" d="M957.18 216.44L956.39 225.6C960.01 227.34 964.82 228.75 968.66 226.06C973.74 222.5 979.18 219.31 986.7 221.5L985.83 209.72L957.18 216.44Z" />
					<g id="&lt;Group&gt;">
						<path id="&lt;Path&gt;" class="shp9" d="M971.01 220.41C955.66 220.41 943.1 207.85 943.1 192.5L943.1 163.86C943.1 148.51 955.66 135.95 971.01 135.95C986.36 135.95 998.92 148.51 998.92 163.86L998.92 192.5C998.92 207.85 986.36 220.41 971.01 220.41Z" />
						<path id="&lt;Path&gt;" class="shp9" d="M948.24 178.18C942.36 172.06 936.24 170.96 929.88 174.88C920.33 180.75 930.61 196.91 948.24 199.11C959.99 200.58 959.99 193.61 948.24 178.18Z" />
						<path id="&lt;Path&gt;" class="shp9" d="M994.77 178.18C1000.65 172.06 1006.77 170.96 1013.13 174.88C1022.68 180.75 1012.4 196.91 994.77 199.11C983.02 200.58 983.02 193.61 994.77 178.18Z" />
					</g>
				</g>
				<path id="&lt;Path&gt;" class="shp15" d="M941.15 159.93C941.36 159.93 960.55 161.24 972.48 151.69C975.43 149.33 979.83 150.24 981.82 153.46C986.16 160.49 993.35 169.69 1000.53 168.08C1011.94 165.52 994.02 124.77 962.35 133.62C941.24 139.52 934.17 148.29 941.15 159.93Z" />
				<path id="&lt;Path&gt;" class="shp24" d="M1061.89 266.59C1055 255.4 1039.68 248.25 1024.7 243.75C1025.8 244.77 1026.41 246.25 1026.32 247.8L1021.69 320.01C1030.48 334.98 1039.06 351.45 1037.83 358.19C1036.61 364.82 1026.15 381.13 1016.91 394.58C1011.78 402.04 1006.93 408.85 1002.35 414.99C1010.29 420.94 1015.83 428.15 1018.97 436.6C1024.31 433.73 1030.55 430.01 1037.72 425.43C1049.92 417.63 1065.66 406.52 1077.27 394.65C1099.09 372.33 1077.51 291.96 1061.89 266.59Z" />
				<path id="&lt;Path&gt;" class="shp24" d="M934.72 416.49C928.6 410.6 923.96 406.14 920.79 403.08C920.82 403.1 920.85 403.11 920.88 403.12C918.35 400.69 917.09 399.47 917.09 399.48C917.09 399.49 917.1 399.5 917.1 399.52C914.58 397.08 912.09 394.68 909.68 392.34C902.87 385.73 896.7 379.69 892.37 375.36C890.64 372.14 891.4 367.61 894.63 361.77C897.41 356.76 903.2 347.7 910.2 340.18C912.27 293.57 906.2 258.99 907.72 247.31C890.51 255.64 886.58 261.85 882.94 266.59C878.79 271.98 833.13 361.77 848.6 388.18C857.45 403.29 868.02 418.27 885.68 431.44C898.89 441.29 916.07 440.97 939.49 448.08C942.63 435.75 948.26 429.09 956.39 428.08C950 428.09 942.78 424.22 934.72 416.49Z" />
				<path id="&lt;Path&gt;" class="shp25" d="M848.98 348.95C844.93 365.24 843.73 379.86 848.6 388.18C853.22 396.06 858.33 403.89 864.64 411.46C884.12 387.53 858.77 358.61 848.98 348.95Z" />
				<path id="&lt;Path&gt;" class="shp25" d="M1085.41 343.91C1074.46 350.87 1055.86 368.57 1065.74 405.17C1069.81 401.77 1073.74 398.26 1077.27 394.65C1086.47 385.24 1087.94 365.49 1085.41 343.91Z" />
				<path id="&lt;Path&gt;" class="shp25" d="M1043.21 345.62C1042.88 336.1 1034.17 332.66 1031.91 320.01C1030.45 311.86 1025.81 306.83 1022.7 304.27L1021.69 320.01C1030.48 334.98 1039.06 351.45 1037.83 358.19C1041.63 356.15 1043.42 351.96 1043.21 345.62Z" />
				<path id="&lt;Path&gt;" class="shp25" d="M894.63 361.77C897.41 356.76 903.2 347.7 910.2 340.18C910.7 328.93 910.72 318.41 910.49 308.71C906.27 313.88 901.21 322.11 898.27 333.51C892.78 354.82 884.39 355.79 885.68 362.24C886.71 367.37 886.74 370.05 891.86 373.69C891.47 371.59 891.44 367.54 894.63 361.77Z" />
				<path id="&lt;Path&gt;" class="shp25" d="M948.65 243.12C948.48 243.69 948.3 244.29 948.48 244.86C948.67 245.45 949.22 245.85 949.74 246.2C960.11 253.03 973.44 252.77 985.85 252.27C987.74 252.19 989.94 251.95 990.94 250.34C991.48 249.48 991.53 248.41 991.57 247.4C991.79 241.57 992 235.74 992.22 229.91C992.27 228.69 992.29 227.38 991.63 226.34C990.48 224.54 987.78 224.46 985.86 225.41C983.95 226.35 982.51 228.02 980.78 229.28C978.07 231.24 974.19 232.07 971.38 230.25C969.68 229.14 968.61 227.24 966.92 226.13C964.21 224.34 961.33 225.25 958.36 225.01C956.32 224.85 953.54 222.93 952.07 223.74C949.06 225.42 949.64 239.73 948.65 243.12Z" />
			</g>
			<path id="&lt;Path&gt;" class="shp24" d="" />
			<g id="&lt;Group&gt;">
				<path id="&lt;Path&gt;" class="shp14" d="M1060.83 337.69L1041.05 319.4C1010.06 319.07 985.67 325.99 967.87 340.17C956.63 328.49 941.73 322.65 923.18 322.65C904.62 322.65 895.34 322.65 895.34 322.65L878.24 334.51L879.15 350.25L1054.61 364.39L1060.83 337.69Z" />
				<path id="&lt;Path&gt;" class="shp32" d="M878.24 334.51L879.15 350.25L951.26 350.25L948.19 345.83C952.14 339.63 928.82 335.85 878.24 334.51Z" />
				<path id="&lt;Path&gt;" class="shp6" d="M961.6 437.1L959.92 437.05L875.94 433.95L874.16 409.87L872.1 381.65L868.93 338.7L878.48 339.01L942.3 341.13L942.31 341.13L955.95 341.59L956.83 356.51L961.6 437.1Z" />
				<path id="&lt;Path&gt;" class="shp6" d="M1068.15 431.06L983.62 442.92L980.95 358.45L980.65 349.5L1060.83 337.71L1064.69 337.15L1065.69 364.39L1066.7 392.05L1068.15 431.06Z" />
				<path id="&lt;Path&gt;" class="shp33" d="M955.95 341.6C964.07 348.2 972.3 350.84 980.66 349.51L983.62 442.92C972.03 444.1 964.13 442.16 959.93 437.1L955.95 341.6Z" />
			</g>
			<path id="&lt;Path&gt;" class="shp9" d="M1069.51 400.75C1069.6 403.22 1068.54 405.62 1066.56 407.11C1065.62 407.82 1064.68 408.74 1063.75 409.96C1057.85 417.61 1040.83 402.06 1034.5 396.95C1028.19 391.83 1037.25 382.68 1045.15 378.34C1046.16 377.79 1047.13 377.35 1048.03 377.02C1051.83 375.58 1054.82 375.91 1057.85 376.62C1059.72 377.06 1061.62 377.66 1063.75 378.08C1063.89 378.11 1064.04 378.14 1064.18 378.16C1066.82 378.61 1068.78 380.83 1068.88 383.5L1069.51 400.75Z" />
			<path id="&lt;Path&gt;" class="shp9" d="M908.53 416.59C902.22 421.72 885.18 437.27 879.29 429.62C877.96 427.89 876.61 426.75 875.29 425.99C873.21 424.79 871.96 422.55 871.76 420.16C871.38 415.69 870.82 408.8 870.46 403.29C870.26 400.13 872.96 397.61 876.11 397.93C877.05 398.02 878.11 397.98 879.29 397.74C885.64 396.46 889.98 393.64 897.88 397.98C905.79 402.34 914.85 411.47 908.53 416.59Z" />
			<g id="&lt;Group&gt;">
				<path id="&lt;Compound Path&gt;" class="shp34" d="M1134.13 460.7C1132.43 456.3 1130.31 451.93 1126.93 448.64C1119.24 441.17 1107.2 441.04 1096.52 441.95C1082.41 443.15 1068.4 445.35 1054.51 448.09C1049.33 449.11 1044.07 450.21 1038.83 449.68C1036.6 449.45 1035.27 444.65 1034.83 435.26L900.38 441.79C901.09 444.9 901.09 446.74 900.38 447.33C891.9 454.29 878.82 443.23 867.99 441.45C860.46 440.22 852.79 439.07 845.21 440.01C837.63 440.95 830.03 444.24 825.48 450.38C820.94 456.52 819.58 467.33 820.96 474.84C824.56 494.29 847.87 512.85 866.39 519.79C1001.14 570.32 1047.24 491.14 1079.34 489.1C1095.19 488.09 1111.61 487.43 1125.84 480.37C1130.25 478.19 1134.72 474.91 1135.68 470.07C1136.3 466.92 1135.29 463.69 1134.13 460.7Z" />
				<g id="&lt;Group&gt;">
					<g id="&lt;Group&gt;">
						<path id="&lt;Path&gt;" class="shp35" d="M907.48 450.27C908.07 450.13 908.66 450 909.26 449.88" />
						<path id="&lt;Path&gt;" class="shp36" d="M912.91 449.2C939.81 444.81 967.82 452.64 995.06 449.34C1006.52 447.95 1018.47 444.66 1029.44 447.48" />
						<path id="&lt;Path&gt;" class="shp36" d="M1031.22 448C1031.8 448.18 1032.37 448.39 1032.94 448.61" />
					</g>
				</g>
				<path id="&lt;Path&gt;" class="shp37" d="M971.21 450.83C972.04 465.4 972.12 480 971.46 494.57" />
			</g>
			<g id="&lt;Group&gt;">
				<path id="&lt;Path&gt;" class="shp38" d="M1126.94 449.08C1114.43 437.49 1085.72 447.9 1070.29 455.14C1055.72 461.97 1041.68 469.85 1027.65 477.73L928.6 527.42C931.43 549.54 934.96 561.77 939.19 564.12C943.42 566.48 1001.07 548.36 1112.11 509.78C1148.19 493.58 1153.13 473.35 1126.94 449.08Z" />
				<path id="&lt;Path&gt;" class="shp37" d="M940.78 560.25C999.86 541.67 1055.16 524.22 1112.86 501.67C1118.51 499.46 1124.22 497.17 1129.11 493.56C1133.99 489.95 1138.03 484.82 1139.06 478.83" />
				<path id="&lt;Path&gt;" class="shp39" d="M1088.11 502.63C1074.44 504.5 1061.17 509.15 1047.38 509.75C1042.97 509.94 1038.46 509.7 1034.33 508.15C1029.52 506.34 1025.54 502.89 1021.67 499.51C1016.99 495.42 1012.3 491.33 1007.62 487.24L928.6 526.88C931.43 549 934.95 561.23 939.19 563.58C943.42 565.94 1001.07 547.82 1112.11 509.24C1113.81 508.47 1115.86 507.37 1118.25 505.93C1109.21 501.71 1098.22 501.25 1088.11 502.63Z" />
			</g>
			<g id="&lt;Group&gt;">
				<path id="&lt;Path&gt;" class="shp9" d="M1033.3 525.67C1031.6 525.12 1029.86 524.8 1028.04 524.86C1022.47 525.06 1017.62 528.97 1014.51 533.6C1011.52 538.03 1009.71 543.4 1010.23 548.73C1011.49 561.73 1023.28 563.61 1034.69 563.61C1036.3 558.81 1037.38 553.86 1037.72 548.82C1038.24 540.89 1036.83 532.73 1033.3 525.67Z" />
				<g id="&lt;Group&gt;">
					<path id="&lt;Path&gt;" class="shp30" d="M1111.23 547.42C1107.61 540.26 1100.27 535.49 1092.52 533.41C1084.77 531.34 1076.58 531.65 1068.6 532.51C1061.5 533.27 1054.14 534.43 1047.37 532.18C1042.5 530.55 1038.07 527.21 1033.3 525.67C1036.83 532.73 1038.24 540.89 1037.72 548.82C1037.38 553.86 1036.3 558.81 1034.69 563.61C1039.59 563.6 1044.41 563.26 1048.3 563.29C1064.92 563.42 1081.33 569.81 1097.81 567.71C1103.61 566.97 1109.95 564.61 1112.25 559.23C1113.86 555.48 1113.07 551.06 1111.23 547.42Z" />
					<path id="&lt;Path&gt;" class="shp7" d="M1111.23 547.42C1107.61 540.26 1100.27 535.49 1092.52 533.41C1086.61 531.83 1080.45 531.64 1074.31 532.02C1071.76 543.88 1073.74 556.64 1079.55 567.3C1085.63 568.1 1091.72 568.49 1097.81 567.71C1103.61 566.97 1109.95 564.61 1112.25 559.23C1113.86 555.48 1113.07 551.06 1111.23 547.42Z" />
				</g>
			</g>
			<g id="&lt;Group&gt;">
				<g id="&lt;Group&gt;">
					<path id="&lt;Path&gt;" class="shp38" d="M833.8 446.42C846.3 434.83 875.02 445.24 890.45 452.48C905.01 459.31 919.05 467.2 933.08 475.07L1027.13 521.73C1023.71 545.43 1019.88 558.46 1015.64 560.81C1011.41 563.16 955.73 545.27 848.62 507.12C812.55 490.93 807.61 470.69 833.8 446.42Z" />
				</g>
				<path id="&lt;Path&gt;" class="shp37" d="M820.14 467.34C825.49 477.63 831.03 488.16 839.71 495.85C849.76 504.75 863 508.96 875.82 512.93C892.05 517.96 908.27 522.99 924.49 528.02L1012.6 556.28" />
			</g>
		</g>
	</g>
</svg>